<?xml version="1.0" standalone="no"?>
<!DOCTYPE svg PUBLIC "-//W3C//DTD SVG 20010904//EN"
 "http://www.w3.org/TR/2001/REC-SVG-20010904/DTD/svg10.dtd">
<svg version="1.0" xmlns="http://www.w3.org/2000/svg"
 width="256.000000pt" height="256.000000pt" viewBox="0 0 256.000000 256.000000"
 preserveAspectRatio="xMidYMid meet">
<metadata>
Created by potrace 1.14, written by Peter Selinger 2001-2017
</metadata>
<g transform="translate(0.000000,256.000000) scale(0.100000,-0.100000)"
fill="#000000" stroke="none">
<path d="M1047 2457 c-23 -19 -27 -43 -11 -66 27 -38 84 -22 84 25 0 35 -47
61 -73 41z"/>
<path d="M1413 2160 c-36 -15 -56 -55 -50 -101 8 -59 57 -93 112 -78 75 21 99
104 44 158 -31 32 -63 38 -106 21z"/>
<path d="M2165 1951 c-123 -35 -262 -118 -329 -198 -18 -21 -40 -35 -64 -39
-51 -9 -66 -18 -122 -75 -29 -29 -44 -52 -37 -54 7 -2 36 -10 66 -17 46 -11
55 -17 58 -38 5 -33 52 -81 77 -78 21 3 26 -6 47 -92 l11 -44 57 59 c46 48 59
69 65 103 5 32 16 51 46 78 93 84 187 255 203 371 6 41 -4 44 -78 24z m-145
-211 c23 -23 24 -33 10 -61 -12 -22 -59 -26 -78 -7 -19 19 -14 55 10 72 29 20
34 20 58 -4z"/>
<path d="M666 1939 c-35 -27 -35 -72 -1 -104 54 -49 140 4 115 71 -21 55 -68
69 -114 33z"/>
<path d="M636 1508 c-368 -87 -605 -439 -552 -818 19 -139 99 -294 206 -401
386 -384 1034 -225 1206 296 34 102 40 261 16 373 l-16 74 60 54 c32 30 87 78
121 107 34 28 67 64 73 78 14 33 19 125 8 165 -9 37 -23 44 -99 51 -97 8 -124
-5 -222 -112 l-88 -95 -26 30 c-37 45 -141 116 -225 154 -142 66 -306 82 -462
44z m329 -48 c123 -31 273 -122 334 -202 13 -17 -44 -84 -410 -473 -31 -33
-70 -76 -87 -95 l-31 -35 -143 142 c-152 152 -178 168 -237 143 -30 -12 -61
-62 -61 -97 0 -31 29 -64 233 -268 179 -179 199 -196 215 -183 23 20 200 176
297 263 44 40 125 112 180 161 55 49 120 108 145 131 25 23 48 39 52 35 14
-14 27 -130 23 -217 -7 -171 -83 -334 -212 -455 -328 -307 -858 -214 -1061
185 -55 108 -75 192 -74 314 2 250 136 469 364 594 47 26 158 62 213 70 54 7
209 -1 260 -13z"/>
</g>
</svg>
