<?xml version="1.0" encoding="UTF-8" standalone="no"?>
<!DOCTYPE svg PUBLIC "-//W3C//DTD SVG 1.1//EN" "http://www.w3.org/Graphics/SVG/1.1/DTD/svg11.dtd">
<svg width="100%" height="100%" viewBox="0 0 185 48" version="1.1" xmlns="http://www.w3.org/2000/svg" xmlns:xlink="http://www.w3.org/1999/xlink" xml:space="preserve" xmlns:serif="http://www.serif.com/" style="fill-rule:evenodd;clip-rule:evenodd;stroke-linejoin:round;stroke-miterlimit:2;">
    <g id="rect855" transform="matrix(0.773582,0,0,0.773582,0,0)">
        <path d="M239.02,10.342C239.02,4.634 234.386,0 228.678,0L10.342,0C4.634,0 0,4.634 0,10.342L0,51.706C0,57.414 4.634,62.048 10.342,62.048L228.678,62.048C234.386,62.048 239.02,57.414 239.02,51.706L239.02,10.342Z" style="fill:rgb(14,35,53);"/>
    </g>
    <g id="g893" transform="matrix(0.730293,0,0,0.730293,5.73224,1.61006)">
        <g transform="matrix(1,0,0,1,66.499,48.4213)">
            <g id="text861">
                <g>
                    <g>
                        <g transform="matrix(15.8888,0,0,15.8888,0,0)">
                            <path d="M0.709,-0L0.605,-0C0.593,-0 0.583,-0.003 0.576,-0.009C0.568,-0.015 0.563,-0.022 0.56,-0.031L0.506,-0.178L0.206,-0.178L0.152,-0.031C0.149,-0.023 0.144,-0.016 0.136,-0.01C0.128,-0.003 0.119,-0 0.108,-0L0.003,-0L0.287,-0.723L0.425,-0.723L0.709,-0ZM0.241,-0.273L0.471,-0.273L0.383,-0.514C0.379,-0.524 0.375,-0.537 0.37,-0.551C0.365,-0.566 0.36,-0.582 0.356,-0.599C0.351,-0.582 0.346,-0.566 0.342,-0.551C0.337,-0.536 0.333,-0.524 0.329,-0.513L0.241,-0.273Z" style="fill:rgb(30,180,212);fill-rule:nonzero;"/>
                        </g>
                        <g transform="matrix(15.8888,0,0,15.8888,11.2811,0)">
                            <path d="M0.066,0.168L0.066,-0.513L0.142,-0.513C0.15,-0.513 0.156,-0.511 0.162,-0.508C0.168,-0.504 0.171,-0.498 0.173,-0.491L0.183,-0.443C0.204,-0.467 0.227,-0.486 0.254,-0.501C0.281,-0.515 0.313,-0.523 0.349,-0.523C0.377,-0.523 0.402,-0.517 0.425,-0.505C0.448,-0.493 0.468,-0.476 0.485,-0.454C0.502,-0.432 0.515,-0.405 0.524,-0.372C0.533,-0.34 0.538,-0.303 0.538,-0.261C0.538,-0.222 0.533,-0.187 0.523,-0.154C0.512,-0.121 0.497,-0.093 0.478,-0.069C0.459,-0.045 0.436,-0.026 0.409,-0.013C0.382,0.001 0.351,0.008 0.318,0.008C0.289,0.008 0.264,0.003 0.244,-0.006C0.224,-0.015 0.206,-0.027 0.19,-0.043L0.19,0.168L0.066,0.168ZM0.306,-0.425C0.28,-0.425 0.258,-0.42 0.24,-0.409C0.222,-0.398 0.205,-0.383 0.19,-0.363L0.19,-0.133C0.204,-0.116 0.219,-0.104 0.235,-0.097C0.252,-0.09 0.27,-0.087 0.289,-0.087C0.307,-0.087 0.324,-0.09 0.339,-0.097C0.354,-0.104 0.367,-0.115 0.378,-0.129C0.388,-0.143 0.396,-0.161 0.402,-0.183C0.408,-0.205 0.411,-0.231 0.411,-0.261C0.411,-0.291 0.408,-0.316 0.403,-0.337C0.398,-0.358 0.392,-0.375 0.383,-0.388C0.374,-0.401 0.363,-0.41 0.35,-0.416C0.337,-0.422 0.322,-0.425 0.306,-0.425Z" style="fill:rgb(30,180,212);fill-rule:nonzero;"/>
                        </g>
                        <g transform="matrix(15.8888,0,0,15.8888,20.2662,0)">
                            <path d="M0.066,0.168L0.066,-0.513L0.142,-0.513C0.15,-0.513 0.156,-0.511 0.162,-0.508C0.168,-0.504 0.171,-0.498 0.173,-0.491L0.183,-0.443C0.204,-0.467 0.227,-0.486 0.254,-0.501C0.281,-0.515 0.313,-0.523 0.349,-0.523C0.377,-0.523 0.402,-0.517 0.425,-0.505C0.448,-0.493 0.468,-0.476 0.485,-0.454C0.502,-0.432 0.515,-0.405 0.524,-0.372C0.533,-0.34 0.538,-0.303 0.538,-0.261C0.538,-0.222 0.533,-0.187 0.523,-0.154C0.512,-0.121 0.497,-0.093 0.478,-0.069C0.459,-0.045 0.436,-0.026 0.409,-0.013C0.382,0.001 0.351,0.008 0.318,0.008C0.289,0.008 0.264,0.003 0.244,-0.006C0.224,-0.015 0.206,-0.027 0.19,-0.043L0.19,0.168L0.066,0.168ZM0.306,-0.425C0.28,-0.425 0.258,-0.42 0.24,-0.409C0.222,-0.398 0.205,-0.383 0.19,-0.363L0.19,-0.133C0.204,-0.116 0.219,-0.104 0.235,-0.097C0.252,-0.09 0.27,-0.087 0.289,-0.087C0.307,-0.087 0.324,-0.09 0.339,-0.097C0.354,-0.104 0.367,-0.115 0.378,-0.129C0.388,-0.143 0.396,-0.161 0.402,-0.183C0.408,-0.205 0.411,-0.231 0.411,-0.261C0.411,-0.291 0.408,-0.316 0.403,-0.337C0.398,-0.358 0.392,-0.375 0.383,-0.388C0.374,-0.401 0.363,-0.41 0.35,-0.416C0.337,-0.422 0.322,-0.425 0.306,-0.425Z" style="fill:rgb(30,180,212);fill-rule:nonzero;"/>
                        </g>
                        <g transform="matrix(15.8888,0,0,15.8888,32.3178,0)">
                            <path d="M0.278,-0.515C0.315,-0.515 0.348,-0.508 0.378,-0.496C0.408,-0.484 0.433,-0.466 0.454,-0.444C0.475,-0.421 0.491,-0.393 0.502,-0.361C0.513,-0.329 0.519,-0.293 0.519,-0.254C0.519,-0.214 0.513,-0.178 0.502,-0.146C0.491,-0.114 0.475,-0.086 0.454,-0.064C0.433,-0.041 0.408,-0.023 0.378,-0.011C0.348,0.001 0.315,0.007 0.278,0.007C0.241,0.007 0.208,0.001 0.178,-0.011C0.148,-0.023 0.123,-0.041 0.102,-0.064C0.081,-0.086 0.064,-0.114 0.053,-0.146C0.042,-0.178 0.036,-0.214 0.036,-0.254C0.036,-0.293 0.042,-0.329 0.053,-0.361C0.064,-0.393 0.081,-0.421 0.102,-0.444C0.123,-0.466 0.148,-0.484 0.178,-0.496C0.208,-0.508 0.241,-0.515 0.278,-0.515ZM0.278,-0.063C0.328,-0.063 0.365,-0.079 0.39,-0.113C0.415,-0.146 0.427,-0.193 0.427,-0.253C0.427,-0.313 0.415,-0.36 0.39,-0.394C0.365,-0.428 0.328,-0.444 0.278,-0.445C0.253,-0.444 0.231,-0.44 0.212,-0.432C0.193,-0.423 0.178,-0.41 0.165,-0.394C0.153,-0.378 0.143,-0.358 0.137,-0.334C0.131,-0.31 0.128,-0.283 0.128,-0.253C0.128,-0.223 0.131,-0.196 0.137,-0.173C0.143,-0.149 0.153,-0.129 0.165,-0.113C0.178,-0.097 0.193,-0.084 0.212,-0.076C0.231,-0.067 0.253,-0.063 0.278,-0.063Z" style="fill:rgb(30,180,212);fill-rule:nonzero;"/>
                        </g>
                        <g transform="matrix(15.8888,0,0,15.8888,41.152,0)">
                            <path d="M0.073,-0L0.073,-0.507L0.126,-0.507C0.139,-0.507 0.147,-0.5 0.15,-0.488L0.157,-0.433C0.179,-0.457 0.204,-0.477 0.231,-0.492C0.258,-0.507 0.289,-0.515 0.325,-0.515C0.353,-0.515 0.377,-0.51 0.398,-0.501C0.419,-0.492 0.437,-0.479 0.451,-0.462C0.465,-0.445 0.476,-0.425 0.484,-0.401C0.491,-0.377 0.495,-0.351 0.495,-0.323L0.495,-0L0.406,-0L0.406,-0.323C0.406,-0.361 0.397,-0.391 0.379,-0.412C0.362,-0.433 0.335,-0.444 0.299,-0.444C0.273,-0.444 0.248,-0.437 0.225,-0.425C0.202,-0.412 0.181,-0.395 0.162,-0.373L0.162,-0L0.073,-0Z" style="fill:rgb(30,180,212);fill-rule:nonzero;"/>
                        </g>
                        <g transform="matrix(15.8888,0,0,15.8888,53.0527,0)">
                            <path d="M0.529,-0.717L0.529,-0.638L0.185,-0.638L0.185,-0.387L0.479,-0.387L0.479,-0.308L0.185,-0.308L0.185,-0L0.087,-0L0.087,-0.717L0.529,-0.717Z" style="fill:rgb(30,180,212);fill-rule:nonzero;"/>
                        </g>
                        <g transform="matrix(15.8888,0,0,15.8888,62.0458,0)">
                            <path d="M0.172,-0.507L0.172,-0L0.083,-0L0.083,-0.507L0.172,-0.507ZM0.192,-0.666C0.192,-0.657 0.19,-0.649 0.187,-0.641C0.183,-0.634 0.179,-0.627 0.173,-0.621C0.167,-0.615 0.16,-0.611 0.153,-0.608C0.145,-0.604 0.137,-0.603 0.128,-0.603C0.119,-0.603 0.111,-0.604 0.104,-0.608C0.096,-0.611 0.09,-0.615 0.084,-0.621C0.078,-0.627 0.073,-0.634 0.07,-0.641C0.067,-0.649 0.065,-0.657 0.065,-0.666C0.065,-0.674 0.067,-0.682 0.07,-0.69C0.073,-0.698 0.078,-0.705 0.084,-0.711C0.09,-0.717 0.096,-0.721 0.104,-0.725C0.111,-0.728 0.119,-0.73 0.128,-0.73C0.137,-0.73 0.145,-0.728 0.153,-0.725C0.16,-0.721 0.167,-0.717 0.173,-0.711C0.179,-0.705 0.183,-0.698 0.187,-0.69C0.19,-0.682 0.192,-0.674 0.192,-0.666Z" style="fill:rgb(30,180,212);fill-rule:nonzero;"/>
                        </g>
                        <g transform="matrix(15.8888,0,0,15.8888,66.1133,0)">
                            <path d="M0.073,-0L0.073,-0.507L0.124,-0.507C0.134,-0.507 0.14,-0.505 0.144,-0.501C0.148,-0.497 0.15,-0.491 0.152,-0.482L0.158,-0.403C0.175,-0.438 0.196,-0.466 0.222,-0.486C0.247,-0.506 0.277,-0.516 0.312,-0.516C0.326,-0.516 0.338,-0.514 0.35,-0.511C0.361,-0.508 0.371,-0.503 0.381,-0.498L0.37,-0.431C0.367,-0.423 0.362,-0.419 0.354,-0.419C0.349,-0.419 0.342,-0.42 0.333,-0.423C0.323,-0.426 0.309,-0.428 0.292,-0.428C0.261,-0.428 0.235,-0.419 0.214,-0.401C0.193,-0.383 0.176,-0.357 0.162,-0.323L0.162,-0L0.073,-0Z" style="fill:rgb(30,180,212);fill-rule:nonzero;"/>
                        </g>
                        <g transform="matrix(15.8888,0,0,15.8888,72.5165,0)">
                            <path d="M0.274,-0.515C0.304,-0.515 0.332,-0.509 0.358,-0.499C0.383,-0.489 0.405,-0.474 0.424,-0.455C0.443,-0.436 0.457,-0.412 0.468,-0.384C0.478,-0.356 0.484,-0.324 0.484,-0.288C0.484,-0.274 0.482,-0.265 0.479,-0.26C0.476,-0.255 0.47,-0.253 0.462,-0.253L0.125,-0.253C0.126,-0.221 0.13,-0.193 0.138,-0.17C0.146,-0.146 0.157,-0.126 0.171,-0.11C0.185,-0.094 0.202,-0.083 0.221,-0.075C0.24,-0.067 0.262,-0.063 0.286,-0.063C0.308,-0.063 0.328,-0.066 0.344,-0.071C0.36,-0.076 0.374,-0.082 0.386,-0.088C0.397,-0.094 0.407,-0.099 0.415,-0.104C0.423,-0.109 0.429,-0.112 0.435,-0.112C0.442,-0.112 0.448,-0.109 0.452,-0.104L0.477,-0.071C0.466,-0.058 0.453,-0.046 0.438,-0.036C0.422,-0.026 0.406,-0.018 0.388,-0.012C0.371,-0.006 0.353,-0.001 0.334,0.002C0.315,0.005 0.297,0.007 0.279,0.007C0.244,0.007 0.211,0.001 0.182,-0.011C0.152,-0.023 0.127,-0.04 0.105,-0.063C0.084,-0.086 0.067,-0.114 0.055,-0.148C0.043,-0.181 0.037,-0.22 0.037,-0.264C0.037,-0.299 0.042,-0.332 0.053,-0.363C0.064,-0.393 0.08,-0.42 0.1,-0.442C0.12,-0.465 0.145,-0.482 0.175,-0.495C0.204,-0.508 0.237,-0.515 0.274,-0.515ZM0.276,-0.449C0.233,-0.449 0.199,-0.437 0.174,-0.412C0.149,-0.387 0.134,-0.353 0.128,-0.309L0.404,-0.309C0.404,-0.329 0.401,-0.348 0.395,-0.365C0.389,-0.382 0.381,-0.397 0.37,-0.41C0.359,-0.422 0.346,-0.432 0.33,-0.439C0.314,-0.446 0.296,-0.449 0.276,-0.449Z" style="fill:rgb(30,180,212);fill-rule:nonzero;"/>
                        </g>
                        <g transform="matrix(15.8888,0,0,15.8888,80.8423,0)">
                            <path d="M0.076,-0L0.076,-0.737L0.166,-0.737L0.166,-0.434C0.187,-0.458 0.211,-0.477 0.238,-0.492C0.265,-0.507 0.296,-0.515 0.331,-0.515C0.36,-0.515 0.387,-0.509 0.411,-0.498C0.434,-0.487 0.454,-0.471 0.471,-0.449C0.488,-0.427 0.501,-0.4 0.51,-0.368C0.519,-0.336 0.523,-0.299 0.523,-0.257C0.523,-0.219 0.518,-0.184 0.508,-0.152C0.498,-0.12 0.484,-0.092 0.465,-0.069C0.446,-0.045 0.423,-0.027 0.396,-0.013C0.369,0 0.338,0.007 0.304,0.007C0.271,0.007 0.244,0.001 0.221,-0.012C0.198,-0.025 0.178,-0.042 0.161,-0.065L0.157,-0.019C0.154,-0.006 0.146,-0 0.134,-0L0.076,-0ZM0.302,-0.444C0.273,-0.444 0.248,-0.437 0.226,-0.424C0.204,-0.41 0.184,-0.391 0.166,-0.367L0.166,-0.122C0.182,-0.1 0.199,-0.085 0.219,-0.076C0.238,-0.067 0.26,-0.062 0.284,-0.062C0.331,-0.062 0.368,-0.079 0.393,-0.113C0.418,-0.146 0.431,-0.194 0.431,-0.257C0.431,-0.29 0.428,-0.318 0.422,-0.342C0.416,-0.365 0.408,-0.385 0.397,-0.4C0.386,-0.415 0.373,-0.426 0.357,-0.433C0.341,-0.44 0.322,-0.444 0.302,-0.444Z" style="fill:rgb(30,180,212);fill-rule:nonzero;"/>
                        </g>
                        <g transform="matrix(15.8888,0,0,15.8888,89.7241,0)">
                            <path d="M0.445,-0L0.406,-0C0.397,-0 0.39,-0.001 0.385,-0.004C0.379,-0.007 0.376,-0.012 0.374,-0.021L0.364,-0.068C0.351,-0.056 0.338,-0.045 0.325,-0.036C0.312,-0.026 0.299,-0.018 0.285,-0.012C0.271,-0.005 0.256,-0 0.24,0.003C0.224,0.006 0.207,0.008 0.188,0.008C0.168,0.008 0.149,0.005 0.132,-0C0.115,-0.006 0.1,-0.014 0.088,-0.025C0.075,-0.036 0.065,-0.05 0.057,-0.067C0.05,-0.084 0.046,-0.103 0.046,-0.127C0.046,-0.147 0.051,-0.166 0.063,-0.184C0.074,-0.203 0.091,-0.219 0.116,-0.234C0.14,-0.248 0.172,-0.26 0.212,-0.269C0.252,-0.278 0.3,-0.283 0.358,-0.285L0.358,-0.324C0.358,-0.363 0.349,-0.393 0.332,-0.413C0.315,-0.433 0.291,-0.444 0.258,-0.444C0.236,-0.444 0.218,-0.441 0.203,-0.435C0.188,-0.43 0.175,-0.424 0.164,-0.417C0.153,-0.41 0.144,-0.404 0.136,-0.398C0.128,-0.393 0.121,-0.39 0.113,-0.39C0.107,-0.39 0.102,-0.392 0.097,-0.395C0.093,-0.398 0.089,-0.402 0.087,-0.407L0.071,-0.435C0.098,-0.462 0.129,-0.482 0.161,-0.496C0.193,-0.509 0.229,-0.516 0.269,-0.516C0.297,-0.516 0.322,-0.511 0.344,-0.502C0.366,-0.492 0.385,-0.479 0.4,-0.463C0.415,-0.446 0.426,-0.426 0.434,-0.402C0.441,-0.378 0.445,-0.352 0.445,-0.324L0.445,-0ZM0.214,-0.055C0.23,-0.055 0.244,-0.056 0.257,-0.059C0.27,-0.062 0.282,-0.067 0.294,-0.073C0.305,-0.079 0.316,-0.086 0.327,-0.094C0.337,-0.102 0.347,-0.112 0.358,-0.123L0.358,-0.228C0.317,-0.227 0.282,-0.223 0.253,-0.218C0.224,-0.213 0.201,-0.206 0.183,-0.198C0.165,-0.19 0.152,-0.18 0.144,-0.169C0.136,-0.157 0.132,-0.145 0.132,-0.131C0.132,-0.117 0.134,-0.106 0.138,-0.096C0.142,-0.086 0.148,-0.078 0.156,-0.072C0.163,-0.066 0.171,-0.062 0.182,-0.059C0.192,-0.056 0.202,-0.055 0.214,-0.055Z" style="fill:rgb(30,180,212);fill-rule:nonzero;"/>
                        </g>
                        <g transform="matrix(15.8888,0,0,15.8888,97.7797,0)">
                            <path d="M0.363,-0.423C0.359,-0.416 0.353,-0.412 0.345,-0.412C0.339,-0.412 0.334,-0.414 0.328,-0.418C0.321,-0.421 0.313,-0.425 0.304,-0.43C0.295,-0.434 0.284,-0.438 0.272,-0.442C0.259,-0.446 0.244,-0.448 0.227,-0.448C0.212,-0.448 0.198,-0.446 0.186,-0.442C0.174,-0.438 0.164,-0.433 0.155,-0.427C0.147,-0.42 0.14,-0.412 0.136,-0.403C0.131,-0.394 0.129,-0.385 0.129,-0.375C0.129,-0.362 0.133,-0.351 0.14,-0.342C0.148,-0.333 0.158,-0.326 0.17,-0.32C0.182,-0.313 0.196,-0.308 0.212,-0.303C0.228,-0.298 0.244,-0.293 0.26,-0.287C0.277,-0.282 0.293,-0.276 0.309,-0.269C0.324,-0.262 0.338,-0.254 0.351,-0.244C0.363,-0.234 0.373,-0.222 0.38,-0.207C0.388,-0.193 0.392,-0.175 0.392,-0.155C0.392,-0.132 0.387,-0.11 0.379,-0.09C0.371,-0.07 0.358,-0.053 0.342,-0.039C0.326,-0.024 0.306,-0.013 0.282,-0.005C0.258,0.004 0.231,0.008 0.2,0.008C0.165,0.008 0.133,0.002 0.104,-0.009C0.075,-0.021 0.051,-0.035 0.031,-0.054L0.052,-0.088C0.055,-0.092 0.058,-0.095 0.062,-0.098C0.065,-0.1 0.07,-0.101 0.076,-0.101C0.082,-0.101 0.088,-0.099 0.095,-0.094C0.102,-0.089 0.11,-0.084 0.119,-0.079C0.129,-0.073 0.14,-0.068 0.154,-0.063C0.167,-0.058 0.184,-0.056 0.205,-0.056C0.222,-0.056 0.237,-0.058 0.25,-0.063C0.263,-0.067 0.274,-0.073 0.283,-0.081C0.291,-0.089 0.298,-0.097 0.302,-0.108C0.306,-0.117 0.308,-0.128 0.308,-0.14C0.308,-0.154 0.304,-0.165 0.297,-0.174C0.289,-0.183 0.279,-0.191 0.267,-0.198C0.255,-0.204 0.241,-0.21 0.225,-0.215C0.209,-0.22 0.193,-0.225 0.176,-0.23C0.16,-0.235 0.144,-0.241 0.128,-0.248C0.112,-0.255 0.098,-0.264 0.086,-0.274C0.073,-0.284 0.063,-0.297 0.056,-0.312C0.048,-0.327 0.045,-0.346 0.045,-0.368C0.045,-0.387 0.048,-0.405 0.057,-0.423C0.065,-0.441 0.076,-0.457 0.092,-0.47C0.107,-0.484 0.126,-0.495 0.148,-0.503C0.17,-0.51 0.196,-0.515 0.225,-0.515C0.258,-0.515 0.288,-0.509 0.314,-0.499C0.341,-0.488 0.364,-0.474 0.383,-0.456L0.363,-0.423Z" style="fill:rgb(30,180,212);fill-rule:nonzero;"/>
                        </g>
                        <g transform="matrix(15.8888,0,0,15.8888,104.675,0)">
                            <path d="M0.274,-0.515C0.304,-0.515 0.332,-0.509 0.358,-0.499C0.383,-0.489 0.405,-0.474 0.424,-0.455C0.443,-0.436 0.457,-0.412 0.468,-0.384C0.478,-0.356 0.484,-0.324 0.484,-0.288C0.484,-0.274 0.482,-0.265 0.479,-0.26C0.476,-0.255 0.47,-0.253 0.462,-0.253L0.125,-0.253C0.126,-0.221 0.13,-0.193 0.138,-0.17C0.146,-0.146 0.157,-0.126 0.171,-0.11C0.185,-0.094 0.202,-0.083 0.221,-0.075C0.24,-0.067 0.262,-0.063 0.286,-0.063C0.308,-0.063 0.328,-0.066 0.344,-0.071C0.36,-0.076 0.374,-0.082 0.386,-0.088C0.397,-0.094 0.407,-0.099 0.415,-0.104C0.423,-0.109 0.429,-0.112 0.435,-0.112C0.442,-0.112 0.448,-0.109 0.452,-0.104L0.477,-0.071C0.466,-0.058 0.453,-0.046 0.438,-0.036C0.422,-0.026 0.406,-0.018 0.388,-0.012C0.371,-0.006 0.353,-0.001 0.334,0.002C0.315,0.005 0.297,0.007 0.279,0.007C0.244,0.007 0.211,0.001 0.182,-0.011C0.152,-0.023 0.127,-0.04 0.105,-0.063C0.084,-0.086 0.067,-0.114 0.055,-0.148C0.043,-0.181 0.037,-0.22 0.037,-0.264C0.037,-0.299 0.042,-0.332 0.053,-0.363C0.064,-0.393 0.08,-0.42 0.1,-0.442C0.12,-0.465 0.145,-0.482 0.175,-0.495C0.204,-0.508 0.237,-0.515 0.274,-0.515ZM0.276,-0.449C0.233,-0.449 0.199,-0.437 0.174,-0.412C0.149,-0.387 0.134,-0.353 0.128,-0.309L0.404,-0.309C0.404,-0.329 0.401,-0.348 0.395,-0.365C0.389,-0.382 0.381,-0.397 0.37,-0.41C0.359,-0.422 0.346,-0.432 0.33,-0.439C0.314,-0.446 0.296,-0.449 0.276,-0.449Z" style="fill:rgb(30,180,212);fill-rule:nonzero;"/>
                        </g>
                    </g>
                </g>
            </g>
        </g>
        <g transform="matrix(1,0,0,1,65.9885,26.6134)">
            <g id="text891">
                <g>
                    <g transform="matrix(20.126,0,0,20.126,0,0)">
                        <path d="M0.162,-0L0.162,-0.331L0.008,-0.81L0.177,-0.81L0.254,-0.554L0.323,-0.81L0.485,-0.81L0.334,-0.331L0.334,-0L0.162,-0Z" style="fill:white;fill-rule:nonzero;"/>
                    </g>
                    <g transform="matrix(20.126,0,0,20.126,9.11706,0)">
                        <path d="M0.021,-0L0.174,-0.81L0.378,-0.81L0.529,-0L0.364,-0L0.337,-0.171L0.218,-0.171L0.19,-0L0.021,-0ZM0.234,-0.278L0.32,-0.278L0.277,-0.594L0.234,-0.278Z" style="fill:white;fill-rule:nonzero;"/>
                    </g>
                    <g transform="matrix(20.126,0,0,20.126,20.2065,0)">
                        <path d="M0.152,-0L0.152,-0.726L0.015,-0.726L0.015,-0.81L0.398,-0.81L0.398,-0.726L0.265,-0.726L0.265,-0L0.152,-0Z" style="fill:white;fill-rule:nonzero;"/>
                    </g>
                    <g transform="matrix(20.126,0,0,20.126,28.5185,0)">
                        <path d="M0.27,0.009C0.215,0.009 0.172,-0.002 0.139,-0.023C0.106,-0.044 0.083,-0.075 0.069,-0.115C0.055,-0.154 0.048,-0.201 0.048,-0.254L0.048,-0.561C0.048,-0.614 0.055,-0.66 0.07,-0.699C0.084,-0.737 0.107,-0.766 0.14,-0.787C0.172,-0.807 0.215,-0.817 0.27,-0.817C0.325,-0.817 0.368,-0.807 0.4,-0.786C0.432,-0.765 0.455,-0.736 0.47,-0.698C0.484,-0.66 0.491,-0.614 0.491,-0.561L0.491,-0.253C0.491,-0.2 0.484,-0.154 0.47,-0.115C0.455,-0.076 0.432,-0.045 0.4,-0.024C0.368,-0.002 0.325,0.009 0.27,0.009ZM0.27,-0.08C0.3,-0.08 0.323,-0.086 0.338,-0.099C0.353,-0.111 0.364,-0.128 0.369,-0.151C0.374,-0.173 0.377,-0.199 0.377,-0.229L0.377,-0.584C0.377,-0.614 0.374,-0.64 0.369,-0.662C0.364,-0.683 0.353,-0.7 0.338,-0.712C0.323,-0.723 0.3,-0.729 0.27,-0.729C0.24,-0.729 0.217,-0.723 0.202,-0.712C0.186,-0.7 0.175,-0.683 0.17,-0.662C0.165,-0.64 0.162,-0.614 0.162,-0.584L0.162,-0.229C0.162,-0.199 0.165,-0.173 0.17,-0.151C0.175,-0.128 0.186,-0.111 0.202,-0.099C0.217,-0.086 0.24,-0.08 0.27,-0.08Z" style="fill:white;fill-rule:nonzero;"/>
                    </g>
                    <g transform="matrix(20.126,0,0,20.126,39.3664,0)">
                        <path d="M0.063,-0L0.063,-0.81L0.239,-0.81C0.299,-0.81 0.347,-0.801 0.382,-0.783C0.417,-0.764 0.442,-0.737 0.457,-0.7C0.472,-0.663 0.479,-0.618 0.479,-0.563L0.479,-0.265C0.479,-0.208 0.472,-0.159 0.457,-0.12C0.442,-0.081 0.417,-0.051 0.384,-0.031C0.35,-0.01 0.305,-0 0.248,-0L0.063,-0ZM0.176,-0.081L0.24,-0.081C0.281,-0.081 0.311,-0.089 0.328,-0.105C0.345,-0.121 0.356,-0.144 0.36,-0.175C0.363,-0.206 0.365,-0.243 0.365,-0.286L0.365,-0.549C0.365,-0.591 0.362,-0.625 0.357,-0.651C0.352,-0.677 0.34,-0.696 0.322,-0.708C0.304,-0.72 0.276,-0.726 0.237,-0.726L0.176,-0.726L0.176,-0.081Z" style="fill:white;fill-rule:nonzero;"/>
                    </g>
                    <g transform="matrix(20.126,0,0,20.126,49.9727,0)">
                        <path d="M0.27,0.009C0.215,0.009 0.172,-0.002 0.139,-0.023C0.106,-0.044 0.083,-0.075 0.069,-0.115C0.055,-0.154 0.048,-0.201 0.048,-0.254L0.048,-0.561C0.048,-0.614 0.055,-0.66 0.07,-0.699C0.084,-0.737 0.107,-0.766 0.14,-0.787C0.172,-0.807 0.215,-0.817 0.27,-0.817C0.325,-0.817 0.368,-0.807 0.4,-0.786C0.432,-0.765 0.455,-0.736 0.47,-0.698C0.484,-0.66 0.491,-0.614 0.491,-0.561L0.491,-0.253C0.491,-0.2 0.484,-0.154 0.47,-0.115C0.455,-0.076 0.432,-0.045 0.4,-0.024C0.368,-0.002 0.325,0.009 0.27,0.009ZM0.27,-0.08C0.3,-0.08 0.323,-0.086 0.338,-0.099C0.353,-0.111 0.364,-0.128 0.369,-0.151C0.374,-0.173 0.377,-0.199 0.377,-0.229L0.377,-0.584C0.377,-0.614 0.374,-0.64 0.369,-0.662C0.364,-0.683 0.353,-0.7 0.338,-0.712C0.323,-0.723 0.3,-0.729 0.27,-0.729C0.24,-0.729 0.217,-0.723 0.202,-0.712C0.186,-0.7 0.175,-0.683 0.17,-0.662C0.165,-0.64 0.162,-0.614 0.162,-0.584L0.162,-0.229C0.162,-0.199 0.165,-0.173 0.17,-0.151C0.175,-0.128 0.186,-0.111 0.202,-0.099C0.217,-0.086 0.24,-0.08 0.27,-0.08Z" style="fill:white;fill-rule:nonzero;"/>
                    </g>
                </g>
            </g>
        </g>
        <g transform="matrix(0.0153567,0,-1.68093e-35,0.0153567,26.3836,10.1153)">
            <path d="M0,2015.5L15.118,1994.34L730.104,637.671L731.614,623.308L416.442,31.282C390.022,-18.31 315.678,-5.769 307.019,49.747L0,2015.5Z" style="fill:rgb(255,194,74);fill-rule:nonzero;"/>
        </g>
        <g id="a" transform="matrix(0.0153567,0,-1.68093e-35,0.0153567,26.3836,10.1153)">
            <path d="M8.923,1999.37L20.352,1977.07L727.854,634.616L413.458,40.183C387.331,-8.888 320.976,3.623 312.402,58.556L8.923,1999.37Z" style="fill:rgb(255,167,18);"/>
        </g>
        <g id="a1" serif:id="a" transform="matrix(0.0153567,0,-1.68093e-35,0.0153567,26.3836,10.1153)">
            <path d="M8.923,1999.37L20.352,1977.07L727.854,634.616L413.458,40.183C387.331,-8.888 320.976,3.623 312.402,58.556L8.923,1999.37Z" style="fill-rule:nonzero;"/>
        </g>
        <g transform="matrix(0.0153567,0,-1.68093e-35,0.0153567,26.3836,10.1153)">
            <path d="M961.383,1071.12L1196.06,830.781L961.312,382.651C939.03,340.23 876.813,340.102 854.766,382.651L729.342,621.827L729.342,642.193L961.376,1071.12L961.383,1071.12Z" style="fill:rgb(244,189,98);fill-rule:nonzero;"/>
        </g>
        <g id="c" transform="matrix(0.0153567,0,-1.68093e-35,0.0153567,26.3836,10.1153)">
            <path d="M957.196,1061.11L1185.35,827.449L957.196,393.012C935.534,351.774 882.902,347.451 861.467,388.811L735.388,631.704L731.614,644.123L957.196,1061.11Z" style="fill:rgb(255,165,14);"/>
        </g>
        <g id="c1" serif:id="c" transform="matrix(0.0153567,0,-1.68093e-35,0.0153567,26.3836,10.1153)">
            <path d="M957.196,1061.11L1185.35,827.449L957.196,393.012C935.534,351.774 882.902,347.451 861.467,388.811L735.388,631.704L731.614,644.123L957.196,1061.11Z" style="fill-rule:nonzero;"/>
        </g>
        <g transform="matrix(0.0153567,0,-1.68093e-35,0.0153567,26.3836,10.1153)">
            <path d="M0,2015.5L6.85,2008.61L31.746,1998.5L946.643,1087L958.236,1055.44L730.005,620.531L0,2015.5Z" style="fill:rgb(246,130,12);fill-rule:nonzero;"/>
        </g>
        <g transform="matrix(0.0153567,0,-1.68093e-35,0.0153567,26.3836,10.1153)">
            <path d="M990.694,2475.19L1818.7,2013.41L1582.25,557.182C1574.85,511.621 1518.96,493.612 1486.34,526.276L0,2015.5L823.255,2475.16C875.228,2504.17 938.709,2504.19 990.694,2475.19" style="fill:rgb(253,224,104);fill-rule:nonzero;"/>
        </g>
        <g transform="matrix(0.0153567,0,-1.68093e-35,0.0153567,26.3836,10.1153)">
            <path d="M1811.28,2009.54L1576.62,564.367C1569.29,519.148 1522.8,500.441 1490.44,532.863L9.186,2012.67L823.405,2467.76C874.98,2496.56 937.978,2496.58 989.569,2467.81L1811.29,2009.53L1811.28,2009.54Z" style="fill:rgb(252,202,63);fill-rule:nonzero;"/>
        </g>
        <g transform="matrix(0.0153567,0,-1.68093e-35,0.0153567,26.3836,10.1153)">
            <path d="M990.687,2461.58C938.704,2490.58 875.226,2490.56 823.255,2461.55L6.63,2008.5L0.007,2015.5L823.255,2475.16C875.228,2504.17 938.709,2504.19 990.694,2475.19L1818.7,2013.41L1816.67,2000.93L990.694,2461.59L990.687,2461.58Z" style="fill:rgb(238,171,55);fill-rule:nonzero;"/>
        </g>
    </g>
</svg>
