<?xml version="1.0" encoding="UTF-8" standalone="no"?>
<!DOCTYPE svg PUBLIC "-//W3C//DTD SVG 1.1//EN" "http://www.w3.org/Graphics/SVG/1.1/DTD/svg11.dtd">
<svg width="100%" height="100%" viewBox="0 0 185 48" version="1.1" xmlns="http://www.w3.org/2000/svg" xmlns:xlink="http://www.w3.org/1999/xlink" xml:space="preserve" xmlns:serif="http://www.serif.com/" style="fill-rule:evenodd;clip-rule:evenodd;stroke-linejoin:round;stroke-miterlimit:2;">
    <g id="rect855" transform="matrix(0.773582,0,0,0.773582,0,0)">
        <path d="M239.02,10.342C239.02,4.634 234.386,0 228.678,0L10.342,0C4.634,0 0,4.634 0,10.342L0,51.706C0,57.414 4.634,62.048 10.342,62.048L228.678,62.048C234.386,62.048 239.02,57.414 239.02,51.706L239.02,10.342Z" style="fill:rgb(14,35,53);"/>
    </g>
    <g id="g893" transform="matrix(0.730293,0,0,0.730293,5.73224,1.61006)">
        <g transform="matrix(1,0,0,1,66.499,48.4213)">
            <g id="text861">
                <g>
                    <g>
                        <g transform="matrix(15.8888,0,0,15.8888,0,0)">
                            <path d="M0.461,-0.592C0.457,-0.584 0.453,-0.579 0.448,-0.576C0.443,-0.573 0.437,-0.572 0.431,-0.572C0.424,-0.572 0.416,-0.574 0.408,-0.579C0.4,-0.584 0.39,-0.59 0.379,-0.597C0.367,-0.603 0.354,-0.609 0.339,-0.614C0.324,-0.619 0.306,-0.622 0.285,-0.622C0.266,-0.622 0.25,-0.619 0.236,-0.615C0.222,-0.61 0.211,-0.604 0.201,-0.596C0.192,-0.588 0.185,-0.578 0.18,-0.567C0.175,-0.556 0.173,-0.544 0.173,-0.531C0.173,-0.514 0.178,-0.499 0.187,-0.488C0.197,-0.477 0.209,-0.467 0.225,-0.459C0.241,-0.451 0.259,-0.444 0.279,-0.438C0.299,-0.431 0.319,-0.424 0.34,-0.417C0.361,-0.41 0.381,-0.402 0.401,-0.392C0.421,-0.383 0.439,-0.371 0.455,-0.356C0.47,-0.342 0.483,-0.324 0.492,-0.303C0.502,-0.282 0.507,-0.257 0.507,-0.227C0.507,-0.194 0.501,-0.163 0.49,-0.135C0.479,-0.106 0.462,-0.081 0.441,-0.06C0.419,-0.039 0.393,-0.022 0.362,-0.01C0.331,0.002 0.296,0.008 0.256,0.008C0.233,0.008 0.21,0.006 0.188,0.001C0.165,-0.003 0.144,-0.01 0.123,-0.018C0.103,-0.026 0.084,-0.036 0.066,-0.048C0.048,-0.06 0.032,-0.073 0.018,-0.087L0.057,-0.152C0.061,-0.156 0.065,-0.16 0.07,-0.163C0.075,-0.166 0.081,-0.168 0.088,-0.168C0.096,-0.168 0.105,-0.165 0.115,-0.158C0.124,-0.151 0.136,-0.143 0.149,-0.135C0.162,-0.127 0.177,-0.119 0.195,-0.112C0.213,-0.105 0.235,-0.102 0.26,-0.102C0.298,-0.102 0.328,-0.111 0.349,-0.129C0.37,-0.147 0.38,-0.173 0.38,-0.208C0.38,-0.227 0.375,-0.242 0.366,-0.254C0.356,-0.266 0.344,-0.276 0.328,-0.284C0.312,-0.292 0.295,-0.299 0.275,-0.305C0.255,-0.311 0.234,-0.317 0.214,-0.324C0.193,-0.33 0.172,-0.338 0.153,-0.348C0.132,-0.357 0.115,-0.369 0.099,-0.384C0.083,-0.399 0.071,-0.418 0.061,-0.44C0.052,-0.463 0.047,-0.491 0.047,-0.524C0.047,-0.55 0.052,-0.576 0.063,-0.601C0.073,-0.626 0.089,-0.648 0.109,-0.667C0.129,-0.686 0.154,-0.702 0.183,-0.714C0.212,-0.725 0.246,-0.731 0.284,-0.731C0.326,-0.731 0.366,-0.724 0.402,-0.711C0.438,-0.698 0.468,-0.679 0.494,-0.655L0.461,-0.592Z" style="fill:rgb(30,180,212);fill-rule:nonzero;"/>
                        </g>
                        <g transform="matrix(15.8888,0,0,15.8888,8.52435,0)">
                            <path d="M0.285,-0.521C0.323,-0.521 0.358,-0.515 0.389,-0.503C0.42,-0.49 0.447,-0.473 0.469,-0.45C0.491,-0.427 0.508,-0.4 0.52,-0.367C0.532,-0.334 0.538,-0.298 0.538,-0.258C0.538,-0.217 0.532,-0.18 0.52,-0.148C0.508,-0.115 0.491,-0.087 0.469,-0.064C0.447,-0.041 0.42,-0.023 0.389,-0.011C0.358,0.001 0.323,0.008 0.285,0.008C0.247,0.008 0.212,0.001 0.181,-0.011C0.149,-0.023 0.122,-0.041 0.1,-0.064C0.078,-0.087 0.061,-0.115 0.049,-0.148C0.037,-0.18 0.031,-0.217 0.031,-0.258C0.031,-0.298 0.037,-0.334 0.049,-0.367C0.061,-0.4 0.078,-0.427 0.1,-0.45C0.122,-0.473 0.149,-0.49 0.181,-0.503C0.212,-0.515 0.247,-0.521 0.285,-0.521ZM0.285,-0.088C0.328,-0.088 0.359,-0.102 0.38,-0.131C0.4,-0.159 0.411,-0.201 0.411,-0.257C0.411,-0.312 0.4,-0.354 0.38,-0.383C0.359,-0.412 0.328,-0.427 0.285,-0.427C0.242,-0.427 0.21,-0.412 0.189,-0.383C0.168,-0.354 0.158,-0.312 0.158,-0.257C0.158,-0.202 0.168,-0.16 0.189,-0.131C0.21,-0.102 0.242,-0.088 0.285,-0.088Z" style="fill:rgb(30,180,212);fill-rule:nonzero;"/>
                        </g>
                        <g transform="matrix(15.8888,0,0,15.8888,17.5571,0)">
                            <path d="M0.179,-0.513L0.179,-0.187C0.179,-0.156 0.186,-0.131 0.201,-0.114C0.215,-0.097 0.237,-0.088 0.266,-0.089C0.287,-0.088 0.307,-0.093 0.326,-0.103C0.345,-0.112 0.362,-0.125 0.379,-0.142L0.379,-0.513L0.503,-0.513L0.503,-0L0.427,-0C0.411,-0 0.401,-0.008 0.396,-0.023L0.387,-0.064C0.376,-0.053 0.365,-0.043 0.354,-0.034C0.343,-0.025 0.331,-0.018 0.318,-0.012C0.305,-0.006 0.291,-0.001 0.276,0.003C0.261,0.006 0.246,0.008 0.229,0.008C0.201,0.008 0.176,0.003 0.154,-0.006C0.133,-0.016 0.115,-0.029 0.1,-0.047C0.085,-0.064 0.074,-0.084 0.067,-0.108C0.059,-0.132 0.056,-0.158 0.056,-0.187L0.056,-0.513L0.179,-0.513Z" style="fill:rgb(30,180,212);fill-rule:nonzero;"/>
                        </g>
                        <g transform="matrix(15.8888,0,0,15.8888,26.5899,0)">
                            <path d="M0.066,-0L0.066,-0.513L0.139,-0.513C0.151,-0.513 0.16,-0.511 0.165,-0.506C0.17,-0.501 0.173,-0.493 0.175,-0.482L0.183,-0.42C0.201,-0.452 0.222,-0.477 0.247,-0.495C0.272,-0.513 0.299,-0.523 0.33,-0.523C0.355,-0.523 0.376,-0.517 0.393,-0.505L0.377,-0.413C0.376,-0.407 0.374,-0.402 0.371,-0.4C0.367,-0.397 0.363,-0.396 0.357,-0.396C0.352,-0.396 0.345,-0.397 0.337,-0.4C0.328,-0.402 0.316,-0.403 0.302,-0.403C0.276,-0.403 0.254,-0.396 0.236,-0.382C0.218,-0.368 0.202,-0.347 0.19,-0.32L0.19,-0L0.066,-0Z" style="fill:rgb(30,180,212);fill-rule:nonzero;"/>
                        </g>
                        <g transform="matrix(15.8888,0,0,15.8888,33.0805,0)">
                            <path d="M0.427,-0.405C0.423,-0.4 0.419,-0.396 0.416,-0.394C0.412,-0.391 0.407,-0.39 0.401,-0.39C0.394,-0.39 0.388,-0.391 0.382,-0.395C0.376,-0.399 0.369,-0.403 0.361,-0.408C0.352,-0.413 0.342,-0.417 0.331,-0.421C0.319,-0.425 0.305,-0.427 0.288,-0.427C0.266,-0.427 0.247,-0.423 0.231,-0.415C0.215,-0.407 0.201,-0.396 0.19,-0.382C0.179,-0.367 0.171,-0.349 0.166,-0.328C0.161,-0.307 0.158,-0.284 0.158,-0.258C0.158,-0.23 0.161,-0.206 0.167,-0.185C0.173,-0.163 0.181,-0.145 0.192,-0.131C0.203,-0.116 0.216,-0.105 0.232,-0.098C0.248,-0.09 0.265,-0.087 0.285,-0.087C0.305,-0.087 0.321,-0.089 0.333,-0.094C0.345,-0.099 0.355,-0.104 0.364,-0.11C0.372,-0.116 0.379,-0.121 0.385,-0.126C0.391,-0.131 0.398,-0.133 0.406,-0.133C0.416,-0.133 0.424,-0.129 0.429,-0.122L0.464,-0.077C0.45,-0.061 0.436,-0.047 0.42,-0.036C0.404,-0.025 0.387,-0.017 0.37,-0.01C0.353,-0.004 0.335,0.001 0.317,0.004C0.298,0.006 0.28,0.008 0.262,0.008C0.23,0.008 0.201,0.002 0.173,-0.01C0.145,-0.022 0.12,-0.039 0.099,-0.062C0.078,-0.085 0.062,-0.112 0.05,-0.145C0.038,-0.178 0.032,-0.216 0.032,-0.258C0.032,-0.295 0.037,-0.33 0.048,-0.362C0.059,-0.394 0.075,-0.422 0.096,-0.446C0.117,-0.469 0.142,-0.488 0.174,-0.501C0.205,-0.514 0.24,-0.521 0.281,-0.521C0.319,-0.521 0.352,-0.515 0.381,-0.503C0.41,-0.49 0.436,-0.472 0.459,-0.45L0.427,-0.405Z" style="fill:rgb(30,180,212);fill-rule:nonzero;"/>
                        </g>
                        <g transform="matrix(15.8888,0,0,15.8888,40.6595,0)">
                            <path d="M0.278,-0.521C0.31,-0.521 0.34,-0.516 0.367,-0.506C0.394,-0.495 0.418,-0.48 0.438,-0.46C0.457,-0.44 0.472,-0.416 0.484,-0.387C0.495,-0.358 0.5,-0.326 0.5,-0.289C0.5,-0.279 0.5,-0.271 0.499,-0.265C0.498,-0.259 0.496,-0.254 0.494,-0.251C0.492,-0.247 0.489,-0.245 0.486,-0.243C0.482,-0.242 0.477,-0.241 0.472,-0.241L0.155,-0.241C0.158,-0.188 0.172,-0.15 0.197,-0.125C0.222,-0.1 0.254,-0.088 0.295,-0.088C0.315,-0.088 0.332,-0.09 0.347,-0.095C0.361,-0.1 0.374,-0.105 0.385,-0.111C0.396,-0.116 0.405,-0.121 0.413,-0.126C0.421,-0.131 0.429,-0.133 0.437,-0.133C0.442,-0.133 0.446,-0.132 0.45,-0.13C0.454,-0.128 0.457,-0.125 0.46,-0.122L0.496,-0.077C0.482,-0.061 0.467,-0.047 0.45,-0.036C0.432,-0.025 0.415,-0.017 0.396,-0.01C0.378,-0.004 0.359,0.001 0.34,0.004C0.321,0.006 0.302,0.008 0.284,0.008C0.248,0.008 0.215,0.002 0.185,-0.01C0.154,-0.022 0.127,-0.04 0.105,-0.063C0.082,-0.086 0.064,-0.115 0.051,-0.149C0.038,-0.183 0.032,-0.223 0.032,-0.268C0.032,-0.303 0.037,-0.335 0.049,-0.366C0.06,-0.397 0.076,-0.424 0.097,-0.447C0.118,-0.47 0.144,-0.488 0.175,-0.501C0.205,-0.514 0.24,-0.521 0.278,-0.521ZM0.281,-0.433C0.245,-0.432 0.216,-0.422 0.196,-0.402C0.176,-0.382 0.163,-0.353 0.157,-0.316L0.389,-0.316C0.389,-0.332 0.387,-0.347 0.383,-0.361C0.378,-0.375 0.372,-0.387 0.363,-0.398C0.354,-0.409 0.342,-0.417 0.329,-0.423C0.315,-0.429 0.299,-0.432 0.281,-0.433Z" style="fill:rgb(30,180,212);fill-rule:nonzero;"/>
                        </g>
                        <g transform="matrix(15.8888,0,0,15.8888,52.2186,0)">
                            <path d="M0.427,-0.405C0.423,-0.4 0.419,-0.396 0.416,-0.394C0.412,-0.391 0.407,-0.39 0.401,-0.39C0.394,-0.39 0.388,-0.391 0.382,-0.395C0.376,-0.399 0.369,-0.403 0.361,-0.408C0.352,-0.413 0.342,-0.417 0.331,-0.421C0.319,-0.425 0.305,-0.427 0.288,-0.427C0.266,-0.427 0.247,-0.423 0.231,-0.415C0.215,-0.407 0.201,-0.396 0.19,-0.382C0.179,-0.367 0.171,-0.349 0.166,-0.328C0.161,-0.307 0.158,-0.284 0.158,-0.258C0.158,-0.23 0.161,-0.206 0.167,-0.185C0.173,-0.163 0.181,-0.145 0.192,-0.131C0.203,-0.116 0.216,-0.105 0.232,-0.098C0.248,-0.09 0.265,-0.087 0.285,-0.087C0.305,-0.087 0.321,-0.089 0.333,-0.094C0.345,-0.099 0.355,-0.104 0.364,-0.11C0.372,-0.116 0.379,-0.121 0.385,-0.126C0.391,-0.131 0.398,-0.133 0.406,-0.133C0.416,-0.133 0.424,-0.129 0.429,-0.122L0.464,-0.077C0.45,-0.061 0.436,-0.047 0.42,-0.036C0.404,-0.025 0.387,-0.017 0.37,-0.01C0.353,-0.004 0.335,0.001 0.317,0.004C0.298,0.006 0.28,0.008 0.262,0.008C0.23,0.008 0.201,0.002 0.173,-0.01C0.145,-0.022 0.12,-0.039 0.099,-0.062C0.078,-0.085 0.062,-0.112 0.05,-0.145C0.038,-0.178 0.032,-0.216 0.032,-0.258C0.032,-0.295 0.037,-0.33 0.048,-0.362C0.059,-0.394 0.075,-0.422 0.096,-0.446C0.117,-0.469 0.142,-0.488 0.174,-0.501C0.205,-0.514 0.24,-0.521 0.281,-0.521C0.319,-0.521 0.352,-0.515 0.381,-0.503C0.41,-0.49 0.436,-0.472 0.459,-0.45L0.427,-0.405Z" style="fill:rgb(30,180,212);fill-rule:nonzero;"/>
                        </g>
                        <g transform="matrix(15.8888,0,0,15.8888,59.7975,0)">
                            <path d="M0.285,-0.521C0.323,-0.521 0.358,-0.515 0.389,-0.503C0.42,-0.49 0.447,-0.473 0.469,-0.45C0.491,-0.427 0.508,-0.4 0.52,-0.367C0.532,-0.334 0.538,-0.298 0.538,-0.258C0.538,-0.217 0.532,-0.18 0.52,-0.148C0.508,-0.115 0.491,-0.087 0.469,-0.064C0.447,-0.041 0.42,-0.023 0.389,-0.011C0.358,0.001 0.323,0.008 0.285,0.008C0.247,0.008 0.212,0.001 0.181,-0.011C0.149,-0.023 0.122,-0.041 0.1,-0.064C0.078,-0.087 0.061,-0.115 0.049,-0.148C0.037,-0.18 0.031,-0.217 0.031,-0.258C0.031,-0.298 0.037,-0.334 0.049,-0.367C0.061,-0.4 0.078,-0.427 0.1,-0.45C0.122,-0.473 0.149,-0.49 0.181,-0.503C0.212,-0.515 0.247,-0.521 0.285,-0.521ZM0.285,-0.088C0.328,-0.088 0.359,-0.102 0.38,-0.131C0.4,-0.159 0.411,-0.201 0.411,-0.257C0.411,-0.312 0.4,-0.354 0.38,-0.383C0.359,-0.412 0.328,-0.427 0.285,-0.427C0.242,-0.427 0.21,-0.412 0.189,-0.383C0.168,-0.354 0.158,-0.312 0.158,-0.257C0.158,-0.202 0.168,-0.16 0.189,-0.131C0.21,-0.102 0.242,-0.088 0.285,-0.088Z" style="fill:rgb(30,180,212);fill-rule:nonzero;"/>
                        </g>
                        <g transform="matrix(15.8888,0,0,15.8888,68.8303,0)">
                            <path d="M0.427,-0C0.411,-0 0.401,-0.008 0.396,-0.023L0.386,-0.072C0.375,-0.06 0.364,-0.049 0.352,-0.04C0.34,-0.03 0.328,-0.022 0.314,-0.015C0.301,-0.008 0.286,-0.002 0.271,0.002C0.255,0.006 0.239,0.008 0.221,0.008C0.193,0.008 0.167,0.002 0.144,-0.01C0.12,-0.022 0.1,-0.039 0.083,-0.061C0.066,-0.083 0.053,-0.11 0.044,-0.143C0.035,-0.176 0.031,-0.213 0.031,-0.255C0.031,-0.293 0.036,-0.328 0.046,-0.361C0.056,-0.394 0.071,-0.422 0.091,-0.446C0.11,-0.47 0.133,-0.489 0.16,-0.502C0.187,-0.516 0.217,-0.523 0.251,-0.523C0.28,-0.523 0.304,-0.518 0.325,-0.509C0.345,-0.5 0.363,-0.487 0.379,-0.472L0.379,-0.743L0.503,-0.743L0.503,-0L0.427,-0ZM0.263,-0.091C0.288,-0.09 0.31,-0.096 0.328,-0.107C0.346,-0.117 0.363,-0.132 0.379,-0.152L0.379,-0.382C0.365,-0.399 0.35,-0.411 0.333,-0.418C0.317,-0.425 0.299,-0.428 0.28,-0.429C0.261,-0.428 0.244,-0.425 0.229,-0.418C0.214,-0.411 0.201,-0.4 0.191,-0.386C0.18,-0.372 0.172,-0.354 0.167,-0.332C0.161,-0.31 0.158,-0.285 0.158,-0.255C0.158,-0.225 0.16,-0.2 0.165,-0.179C0.17,-0.158 0.177,-0.141 0.186,-0.128C0.195,-0.115 0.206,-0.105 0.219,-0.099C0.232,-0.093 0.247,-0.09 0.263,-0.091Z" style="fill:rgb(30,180,212);fill-rule:nonzero;"/>
                        </g>
                        <g transform="matrix(15.8888,0,0,15.8888,77.8869,0)">
                            <path d="M0.278,-0.521C0.31,-0.521 0.34,-0.516 0.367,-0.506C0.394,-0.495 0.418,-0.48 0.438,-0.46C0.457,-0.44 0.472,-0.416 0.484,-0.387C0.495,-0.358 0.5,-0.326 0.5,-0.289C0.5,-0.279 0.5,-0.271 0.499,-0.265C0.498,-0.259 0.496,-0.254 0.494,-0.251C0.492,-0.247 0.489,-0.245 0.486,-0.243C0.482,-0.242 0.477,-0.241 0.472,-0.241L0.155,-0.241C0.158,-0.188 0.172,-0.15 0.197,-0.125C0.222,-0.1 0.254,-0.088 0.295,-0.088C0.315,-0.088 0.332,-0.09 0.347,-0.095C0.361,-0.1 0.374,-0.105 0.385,-0.111C0.396,-0.116 0.405,-0.121 0.413,-0.126C0.421,-0.131 0.429,-0.133 0.437,-0.133C0.442,-0.133 0.446,-0.132 0.45,-0.13C0.454,-0.128 0.457,-0.125 0.46,-0.122L0.496,-0.077C0.482,-0.061 0.467,-0.047 0.45,-0.036C0.432,-0.025 0.415,-0.017 0.396,-0.01C0.378,-0.004 0.359,0.001 0.34,0.004C0.321,0.006 0.302,0.008 0.284,0.008C0.248,0.008 0.215,0.002 0.185,-0.01C0.154,-0.022 0.127,-0.04 0.105,-0.063C0.082,-0.086 0.064,-0.115 0.051,-0.149C0.038,-0.183 0.032,-0.223 0.032,-0.268C0.032,-0.303 0.037,-0.335 0.049,-0.366C0.06,-0.397 0.076,-0.424 0.097,-0.447C0.118,-0.47 0.144,-0.488 0.175,-0.501C0.205,-0.514 0.24,-0.521 0.278,-0.521ZM0.281,-0.433C0.245,-0.432 0.216,-0.422 0.196,-0.402C0.176,-0.382 0.163,-0.353 0.157,-0.316L0.389,-0.316C0.389,-0.332 0.387,-0.347 0.383,-0.361C0.378,-0.375 0.372,-0.387 0.363,-0.398C0.354,-0.409 0.342,-0.417 0.329,-0.423C0.315,-0.429 0.299,-0.432 0.281,-0.433Z" style="fill:rgb(30,180,212);fill-rule:nonzero;"/>
                        </g>
                        <g transform="matrix(15.8888,0,0,15.8888,89.4461,0)">
                            <path d="M0.278,-0.515C0.315,-0.515 0.348,-0.508 0.378,-0.496C0.408,-0.484 0.433,-0.466 0.454,-0.444C0.475,-0.421 0.491,-0.393 0.502,-0.361C0.513,-0.329 0.519,-0.293 0.519,-0.254C0.519,-0.214 0.513,-0.178 0.502,-0.146C0.491,-0.114 0.475,-0.086 0.454,-0.064C0.433,-0.041 0.408,-0.023 0.378,-0.011C0.348,0.001 0.315,0.007 0.278,0.007C0.241,0.007 0.208,0.001 0.178,-0.011C0.148,-0.023 0.123,-0.041 0.102,-0.064C0.081,-0.086 0.064,-0.114 0.053,-0.146C0.042,-0.178 0.036,-0.214 0.036,-0.254C0.036,-0.293 0.042,-0.329 0.053,-0.361C0.064,-0.393 0.081,-0.421 0.102,-0.444C0.123,-0.466 0.148,-0.484 0.178,-0.496C0.208,-0.508 0.241,-0.515 0.278,-0.515ZM0.278,-0.063C0.328,-0.063 0.365,-0.079 0.39,-0.113C0.415,-0.146 0.427,-0.193 0.427,-0.253C0.427,-0.313 0.415,-0.36 0.39,-0.394C0.365,-0.428 0.328,-0.444 0.278,-0.445C0.253,-0.444 0.231,-0.44 0.212,-0.432C0.193,-0.423 0.178,-0.41 0.165,-0.394C0.153,-0.378 0.143,-0.358 0.137,-0.334C0.131,-0.31 0.128,-0.283 0.128,-0.253C0.128,-0.223 0.131,-0.196 0.137,-0.173C0.143,-0.149 0.153,-0.129 0.165,-0.113C0.178,-0.097 0.193,-0.084 0.212,-0.076C0.231,-0.067 0.253,-0.063 0.278,-0.063Z" style="fill:rgb(30,180,212);fill-rule:nonzero;"/>
                        </g>
                        <g transform="matrix(15.8888,0,0,15.8888,98.2802,0)">
                            <path d="M0.073,-0L0.073,-0.507L0.126,-0.507C0.139,-0.507 0.147,-0.5 0.15,-0.488L0.157,-0.433C0.179,-0.457 0.204,-0.477 0.231,-0.492C0.258,-0.507 0.289,-0.515 0.325,-0.515C0.353,-0.515 0.377,-0.51 0.398,-0.501C0.419,-0.492 0.437,-0.479 0.451,-0.462C0.465,-0.445 0.476,-0.425 0.484,-0.401C0.491,-0.377 0.495,-0.351 0.495,-0.323L0.495,-0L0.406,-0L0.406,-0.323C0.406,-0.361 0.397,-0.391 0.379,-0.412C0.362,-0.433 0.335,-0.444 0.299,-0.444C0.273,-0.444 0.248,-0.437 0.225,-0.425C0.202,-0.412 0.181,-0.395 0.162,-0.373L0.162,-0L0.073,-0Z" style="fill:rgb(30,180,212);fill-rule:nonzero;"/>
                        </g>
                        <g transform="matrix(15.8888,0,0,15.8888,110.181,0)">
                            <path d="M0.407,-0.071C0.426,-0.071 0.444,-0.071 0.46,-0.073C0.476,-0.075 0.491,-0.078 0.506,-0.082C0.52,-0.085 0.533,-0.09 0.546,-0.095C0.559,-0.1 0.571,-0.106 0.584,-0.113L0.584,-0.271L0.473,-0.271C0.467,-0.271 0.462,-0.272 0.458,-0.276C0.454,-0.28 0.452,-0.284 0.452,-0.29L0.452,-0.345L0.672,-0.345L0.672,-0.07C0.654,-0.057 0.635,-0.045 0.616,-0.036C0.596,-0.026 0.575,-0.018 0.553,-0.011C0.531,-0.005 0.507,0 0.482,0.003C0.457,0.006 0.429,0.008 0.4,0.008C0.347,0.008 0.3,-0.001 0.257,-0.019C0.213,-0.037 0.176,-0.062 0.145,-0.094C0.113,-0.126 0.089,-0.165 0.071,-0.21C0.054,-0.255 0.045,-0.304 0.045,-0.358C0.045,-0.413 0.054,-0.463 0.071,-0.508C0.088,-0.553 0.112,-0.591 0.144,-0.623C0.176,-0.655 0.215,-0.68 0.26,-0.698C0.305,-0.716 0.356,-0.725 0.412,-0.725C0.44,-0.725 0.466,-0.722 0.491,-0.718C0.515,-0.714 0.537,-0.708 0.558,-0.7C0.579,-0.692 0.598,-0.683 0.616,-0.672C0.634,-0.661 0.65,-0.648 0.666,-0.634L0.638,-0.59C0.632,-0.581 0.625,-0.577 0.616,-0.577C0.611,-0.577 0.605,-0.578 0.599,-0.582C0.59,-0.587 0.581,-0.592 0.571,-0.599C0.56,-0.606 0.548,-0.612 0.533,-0.618C0.518,-0.624 0.5,-0.63 0.48,-0.634C0.46,-0.638 0.436,-0.641 0.409,-0.641C0.368,-0.641 0.332,-0.634 0.299,-0.621C0.266,-0.608 0.239,-0.589 0.216,-0.564C0.193,-0.54 0.175,-0.51 0.163,-0.475C0.15,-0.44 0.144,-0.401 0.144,-0.358C0.144,-0.313 0.15,-0.272 0.163,-0.237C0.176,-0.201 0.194,-0.171 0.218,-0.147C0.241,-0.122 0.269,-0.103 0.301,-0.09C0.333,-0.077 0.368,-0.071 0.407,-0.071Z" style="fill:rgb(30,180,212);fill-rule:nonzero;"/>
                        </g>
                        <g transform="matrix(15.8888,0,0,15.8888,121.843,0)">
                            <path d="M0.172,-0.507L0.172,-0L0.083,-0L0.083,-0.507L0.172,-0.507ZM0.192,-0.666C0.192,-0.657 0.19,-0.649 0.187,-0.641C0.183,-0.634 0.179,-0.627 0.173,-0.621C0.167,-0.615 0.16,-0.611 0.153,-0.608C0.145,-0.604 0.137,-0.603 0.128,-0.603C0.119,-0.603 0.111,-0.604 0.104,-0.608C0.096,-0.611 0.09,-0.615 0.084,-0.621C0.078,-0.627 0.073,-0.634 0.07,-0.641C0.067,-0.649 0.065,-0.657 0.065,-0.666C0.065,-0.674 0.067,-0.682 0.07,-0.69C0.073,-0.698 0.078,-0.705 0.084,-0.711C0.09,-0.717 0.096,-0.721 0.104,-0.725C0.111,-0.728 0.119,-0.73 0.128,-0.73C0.137,-0.73 0.145,-0.728 0.153,-0.725C0.16,-0.721 0.167,-0.717 0.173,-0.711C0.179,-0.705 0.183,-0.698 0.187,-0.69C0.19,-0.682 0.192,-0.674 0.192,-0.666Z" style="fill:rgb(30,180,212);fill-rule:nonzero;"/>
                        </g>
                        <g transform="matrix(15.8888,0,0,15.8888,125.911,0)">
                            <path d="M0.227,0.008C0.187,0.008 0.156,-0.003 0.134,-0.026C0.113,-0.048 0.102,-0.08 0.102,-0.122L0.102,-0.432L0.041,-0.432C0.036,-0.432 0.031,-0.434 0.028,-0.437C0.024,-0.44 0.022,-0.445 0.022,-0.452L0.022,-0.487L0.105,-0.498L0.126,-0.654C0.126,-0.659 0.128,-0.663 0.132,-0.666C0.136,-0.669 0.14,-0.671 0.146,-0.671L0.191,-0.671L0.191,-0.497L0.336,-0.497L0.336,-0.432L0.191,-0.432L0.191,-0.128C0.191,-0.107 0.196,-0.091 0.207,-0.081C0.217,-0.07 0.23,-0.065 0.247,-0.065C0.256,-0.065 0.264,-0.066 0.271,-0.069C0.278,-0.071 0.284,-0.074 0.289,-0.077C0.294,-0.08 0.298,-0.083 0.301,-0.085C0.305,-0.088 0.308,-0.089 0.311,-0.089C0.315,-0.089 0.319,-0.086 0.323,-0.081L0.349,-0.038C0.334,-0.024 0.315,-0.012 0.294,-0.004C0.272,0.004 0.25,0.008 0.227,0.008Z" style="fill:rgb(30,180,212);fill-rule:nonzero;"/>
                        </g>
                        <g transform="matrix(15.8888,0,0,15.8888,131.837,0)">
                            <path d="M0.073,-0L0.073,-0.737L0.162,-0.737L0.162,-0.439C0.184,-0.462 0.208,-0.48 0.234,-0.494C0.26,-0.508 0.291,-0.515 0.325,-0.515C0.353,-0.515 0.377,-0.51 0.398,-0.501C0.419,-0.492 0.437,-0.479 0.451,-0.462C0.465,-0.445 0.476,-0.425 0.484,-0.401C0.491,-0.377 0.495,-0.351 0.495,-0.323L0.495,-0L0.406,-0L0.406,-0.323C0.406,-0.361 0.397,-0.391 0.379,-0.412C0.362,-0.433 0.335,-0.444 0.299,-0.444C0.273,-0.444 0.248,-0.437 0.225,-0.425C0.202,-0.412 0.181,-0.395 0.162,-0.373L0.162,-0L0.073,-0Z" style="fill:rgb(30,180,212);fill-rule:nonzero;"/>
                        </g>
                        <g transform="matrix(15.8888,0,0,15.8888,140.672,0)">
                            <path d="M0.15,-0.507L0.15,-0.184C0.15,-0.145 0.159,-0.116 0.177,-0.095C0.194,-0.074 0.221,-0.063 0.257,-0.063C0.282,-0.063 0.307,-0.069 0.33,-0.082C0.353,-0.094 0.374,-0.111 0.394,-0.133L0.394,-0.507L0.483,-0.507L0.483,-0L0.43,-0C0.417,-0 0.409,-0.006 0.406,-0.019L0.399,-0.073C0.377,-0.049 0.352,-0.029 0.325,-0.014C0.297,0.001 0.266,0.008 0.231,0.008C0.203,0.008 0.178,0.003 0.157,-0.006C0.136,-0.015 0.118,-0.028 0.104,-0.045C0.09,-0.061 0.079,-0.081 0.072,-0.105C0.065,-0.129 0.061,-0.155 0.061,-0.184L0.061,-0.507L0.15,-0.507Z" style="fill:rgb(30,180,212);fill-rule:nonzero;"/>
                        </g>
                        <g transform="matrix(15.8888,0,0,15.8888,149.506,0)">
                            <path d="M0.076,-0L0.076,-0.737L0.166,-0.737L0.166,-0.434C0.187,-0.458 0.211,-0.477 0.238,-0.492C0.265,-0.507 0.296,-0.515 0.331,-0.515C0.36,-0.515 0.387,-0.509 0.411,-0.498C0.434,-0.487 0.454,-0.471 0.471,-0.449C0.488,-0.427 0.501,-0.4 0.51,-0.368C0.519,-0.336 0.523,-0.299 0.523,-0.257C0.523,-0.219 0.518,-0.184 0.508,-0.152C0.498,-0.12 0.484,-0.092 0.465,-0.069C0.446,-0.045 0.423,-0.027 0.396,-0.013C0.369,0 0.338,0.007 0.304,0.007C0.271,0.007 0.244,0.001 0.221,-0.012C0.198,-0.025 0.178,-0.042 0.161,-0.065L0.157,-0.019C0.154,-0.006 0.146,-0 0.134,-0L0.076,-0ZM0.302,-0.444C0.273,-0.444 0.248,-0.437 0.226,-0.424C0.204,-0.41 0.184,-0.391 0.166,-0.367L0.166,-0.122C0.182,-0.1 0.199,-0.085 0.219,-0.076C0.238,-0.067 0.26,-0.062 0.284,-0.062C0.331,-0.062 0.368,-0.079 0.393,-0.113C0.418,-0.146 0.431,-0.194 0.431,-0.257C0.431,-0.29 0.428,-0.318 0.422,-0.342C0.416,-0.365 0.408,-0.385 0.397,-0.4C0.386,-0.415 0.373,-0.426 0.357,-0.433C0.341,-0.44 0.322,-0.444 0.302,-0.444Z" style="fill:rgb(30,180,212);fill-rule:nonzero;"/>
                        </g>
                    </g>
                </g>
            </g>
        </g>
        <g transform="matrix(1,0,0,1,65.9885,26.6134)">
            <g id="text891">
                <g>
                    <g transform="matrix(20.126,0,0,20.126,0,0)">
                        <path d="M0.162,-0L0.162,-0.331L0.008,-0.81L0.177,-0.81L0.254,-0.554L0.323,-0.81L0.485,-0.81L0.334,-0.331L0.334,-0L0.162,-0Z" style="fill:white;fill-rule:nonzero;"/>
                    </g>
                    <g transform="matrix(20.126,0,0,20.126,9.11706,0)">
                        <path d="M0.021,-0L0.174,-0.81L0.378,-0.81L0.529,-0L0.364,-0L0.337,-0.171L0.218,-0.171L0.19,-0L0.021,-0ZM0.234,-0.278L0.32,-0.278L0.277,-0.594L0.234,-0.278Z" style="fill:white;fill-rule:nonzero;"/>
                    </g>
                    <g transform="matrix(20.126,0,0,20.126,20.2065,0)">
                        <path d="M0.152,-0L0.152,-0.726L0.015,-0.726L0.015,-0.81L0.398,-0.81L0.398,-0.726L0.265,-0.726L0.265,-0L0.152,-0Z" style="fill:white;fill-rule:nonzero;"/>
                    </g>
                    <g transform="matrix(20.126,0,0,20.126,28.5185,0)">
                        <path d="M0.27,0.009C0.215,0.009 0.172,-0.002 0.139,-0.023C0.106,-0.044 0.083,-0.075 0.069,-0.115C0.055,-0.154 0.048,-0.201 0.048,-0.254L0.048,-0.561C0.048,-0.614 0.055,-0.66 0.07,-0.699C0.084,-0.737 0.107,-0.766 0.14,-0.787C0.172,-0.807 0.215,-0.817 0.27,-0.817C0.325,-0.817 0.368,-0.807 0.4,-0.786C0.432,-0.765 0.455,-0.736 0.47,-0.698C0.484,-0.66 0.491,-0.614 0.491,-0.561L0.491,-0.253C0.491,-0.2 0.484,-0.154 0.47,-0.115C0.455,-0.076 0.432,-0.045 0.4,-0.024C0.368,-0.002 0.325,0.009 0.27,0.009ZM0.27,-0.08C0.3,-0.08 0.323,-0.086 0.338,-0.099C0.353,-0.111 0.364,-0.128 0.369,-0.151C0.374,-0.173 0.377,-0.199 0.377,-0.229L0.377,-0.584C0.377,-0.614 0.374,-0.64 0.369,-0.662C0.364,-0.683 0.353,-0.7 0.338,-0.712C0.323,-0.723 0.3,-0.729 0.27,-0.729C0.24,-0.729 0.217,-0.723 0.202,-0.712C0.186,-0.7 0.175,-0.683 0.17,-0.662C0.165,-0.64 0.162,-0.614 0.162,-0.584L0.162,-0.229C0.162,-0.199 0.165,-0.173 0.17,-0.151C0.175,-0.128 0.186,-0.111 0.202,-0.099C0.217,-0.086 0.24,-0.08 0.27,-0.08Z" style="fill:white;fill-rule:nonzero;"/>
                    </g>
                    <g transform="matrix(20.126,0,0,20.126,39.3664,0)">
                        <path d="M0.063,-0L0.063,-0.81L0.239,-0.81C0.299,-0.81 0.347,-0.801 0.382,-0.783C0.417,-0.764 0.442,-0.737 0.457,-0.7C0.472,-0.663 0.479,-0.618 0.479,-0.563L0.479,-0.265C0.479,-0.208 0.472,-0.159 0.457,-0.12C0.442,-0.081 0.417,-0.051 0.384,-0.031C0.35,-0.01 0.305,-0 0.248,-0L0.063,-0ZM0.176,-0.081L0.24,-0.081C0.281,-0.081 0.311,-0.089 0.328,-0.105C0.345,-0.121 0.356,-0.144 0.36,-0.175C0.363,-0.206 0.365,-0.243 0.365,-0.286L0.365,-0.549C0.365,-0.591 0.362,-0.625 0.357,-0.651C0.352,-0.677 0.34,-0.696 0.322,-0.708C0.304,-0.72 0.276,-0.726 0.237,-0.726L0.176,-0.726L0.176,-0.081Z" style="fill:white;fill-rule:nonzero;"/>
                    </g>
                    <g transform="matrix(20.126,0,0,20.126,49.9727,0)">
                        <path d="M0.27,0.009C0.215,0.009 0.172,-0.002 0.139,-0.023C0.106,-0.044 0.083,-0.075 0.069,-0.115C0.055,-0.154 0.048,-0.201 0.048,-0.254L0.048,-0.561C0.048,-0.614 0.055,-0.66 0.07,-0.699C0.084,-0.737 0.107,-0.766 0.14,-0.787C0.172,-0.807 0.215,-0.817 0.27,-0.817C0.325,-0.817 0.368,-0.807 0.4,-0.786C0.432,-0.765 0.455,-0.736 0.47,-0.698C0.484,-0.66 0.491,-0.614 0.491,-0.561L0.491,-0.253C0.491,-0.2 0.484,-0.154 0.47,-0.115C0.455,-0.076 0.432,-0.045 0.4,-0.024C0.368,-0.002 0.325,0.009 0.27,0.009ZM0.27,-0.08C0.3,-0.08 0.323,-0.086 0.338,-0.099C0.353,-0.111 0.364,-0.128 0.369,-0.151C0.374,-0.173 0.377,-0.199 0.377,-0.229L0.377,-0.584C0.377,-0.614 0.374,-0.64 0.369,-0.662C0.364,-0.683 0.353,-0.7 0.338,-0.712C0.323,-0.723 0.3,-0.729 0.27,-0.729C0.24,-0.729 0.217,-0.723 0.202,-0.712C0.186,-0.7 0.175,-0.683 0.17,-0.662C0.165,-0.64 0.162,-0.614 0.162,-0.584L0.162,-0.229C0.162,-0.199 0.165,-0.173 0.17,-0.151C0.175,-0.128 0.186,-0.111 0.202,-0.099C0.217,-0.086 0.24,-0.08 0.27,-0.08Z" style="fill:white;fill-rule:nonzero;"/>
                    </g>
                </g>
            </g>
        </g>
        <g transform="matrix(1.19524,0,0,1.19524,-7.20756,-5.9847)">
            <path d="M39.465,17.574C32.058,17.574 26.051,23.58 26.051,30.99C26.051,36.917 29.894,41.945 35.225,43.719C35.896,43.842 36.141,43.428 36.141,43.072C36.141,42.754 36.13,41.91 36.123,40.791C32.391,41.602 31.604,38.992 31.604,38.992C30.993,37.442 30.114,37.03 30.114,37.03C28.896,36.198 30.206,36.215 30.206,36.215C31.553,36.309 32.261,37.597 32.261,37.597C33.458,39.647 35.401,39.055 36.166,38.712C36.287,37.845 36.634,37.254 37.017,36.919C34.038,36.58 30.906,35.429 30.906,30.288C30.906,28.824 31.429,27.625 32.287,26.688C32.149,26.349 31.688,24.984 32.419,23.138C32.419,23.138 33.545,22.777 36.108,24.513C37.178,24.215 38.326,24.067 39.466,24.061C40.606,24.067 41.753,24.215 42.825,24.513C45.386,22.777 46.51,23.138 46.51,23.138C47.242,24.984 46.782,26.349 46.644,26.688C47.504,27.625 48.023,28.824 48.023,30.288C48.023,35.442 44.886,36.576 41.898,36.908C42.379,37.322 42.808,38.141 42.808,39.392C42.808,41.185 42.792,42.632 42.792,43.072C42.792,43.431 43.034,43.849 43.714,43.718C49.041,41.94 52.881,36.915 52.881,30.989C52.881,23.58 46.874,17.574 39.464,17.574" style="fill:white;"/>
        </g>
    </g>
</svg>
