<?xml version="1.0" encoding="UTF-8" standalone="no"?>
<!DOCTYPE svg PUBLIC "-//W3C//DTD SVG 1.1//EN" "http://www.w3.org/Graphics/SVG/1.1/DTD/svg11.dtd">
<svg width="100%" height="100%" viewBox="0 0 185 48" version="1.1" xmlns="http://www.w3.org/2000/svg" xmlns:xlink="http://www.w3.org/1999/xlink" xml:space="preserve" xmlns:serif="http://www.serif.com/" style="fill-rule:evenodd;clip-rule:evenodd;stroke-linejoin:round;stroke-miterlimit:2;">
    <g id="rect855" transform="matrix(0.773582,0,0,0.773582,0,0)">
        <path d="M239.02,10.342C239.02,4.634 234.386,0 228.678,0L10.342,0C4.634,0 0,4.634 0,10.342L0,51.706C0,57.414 4.634,62.048 10.342,62.048L228.678,62.048C234.386,62.048 239.02,57.414 239.02,51.706L239.02,10.342Z" style="fill:rgb(14,35,53);"/>
    </g>
    <g id="g893" transform="matrix(0.730293,0,0,0.730293,5.73224,1.61006)">
        <g transform="matrix(1,0,0,1,66.499,48.4213)">
            <g id="text861">
                <g>
                    <g>
                        <g transform="matrix(15.8888,0,0,15.8888,0,0)">
                            <path d="M0.529,-0.717L0.529,-0.638L0.185,-0.638L0.185,-0.387L0.479,-0.387L0.479,-0.308L0.185,-0.308L0.185,-0L0.087,-0L0.087,-0.717L0.529,-0.717Z" style="fill:rgb(30,180,212);fill-rule:nonzero;"/>
                        </g>
                        <g transform="matrix(15.8888,0,0,15.8888,8.99307,0)">
                            <path d="M0.172,-0.507L0.172,-0L0.083,-0L0.083,-0.507L0.172,-0.507ZM0.192,-0.666C0.192,-0.657 0.19,-0.649 0.187,-0.641C0.183,-0.634 0.179,-0.627 0.173,-0.621C0.167,-0.615 0.16,-0.611 0.153,-0.608C0.145,-0.604 0.137,-0.603 0.128,-0.603C0.119,-0.603 0.111,-0.604 0.104,-0.608C0.096,-0.611 0.09,-0.615 0.084,-0.621C0.078,-0.627 0.073,-0.634 0.07,-0.641C0.067,-0.649 0.065,-0.657 0.065,-0.666C0.065,-0.674 0.067,-0.682 0.07,-0.69C0.073,-0.698 0.078,-0.705 0.084,-0.711C0.09,-0.717 0.096,-0.721 0.104,-0.725C0.111,-0.728 0.119,-0.73 0.128,-0.73C0.137,-0.73 0.145,-0.728 0.153,-0.725C0.16,-0.721 0.167,-0.717 0.173,-0.711C0.179,-0.705 0.183,-0.698 0.187,-0.69C0.19,-0.682 0.192,-0.674 0.192,-0.666Z" style="fill:rgb(30,180,212);fill-rule:nonzero;"/>
                        </g>
                        <g transform="matrix(15.8888,0,0,15.8888,13.0606,0)">
                            <path d="M0.244,-0.515C0.266,-0.515 0.286,-0.513 0.305,-0.508C0.324,-0.503 0.342,-0.496 0.358,-0.487L0.495,-0.487L0.495,-0.454C0.495,-0.443 0.488,-0.436 0.474,-0.433L0.417,-0.425C0.428,-0.403 0.434,-0.379 0.434,-0.352C0.434,-0.327 0.429,-0.305 0.419,-0.285C0.41,-0.265 0.397,-0.247 0.38,-0.233C0.363,-0.219 0.343,-0.208 0.32,-0.2C0.297,-0.192 0.271,-0.189 0.244,-0.189C0.22,-0.189 0.198,-0.191 0.177,-0.197C0.166,-0.19 0.158,-0.183 0.152,-0.176C0.147,-0.168 0.144,-0.16 0.144,-0.153C0.144,-0.141 0.149,-0.132 0.159,-0.126C0.168,-0.12 0.181,-0.115 0.197,-0.113C0.213,-0.11 0.231,-0.108 0.252,-0.108C0.272,-0.107 0.293,-0.106 0.314,-0.104C0.335,-0.103 0.356,-0.1 0.376,-0.097C0.396,-0.093 0.415,-0.087 0.431,-0.079C0.447,-0.07 0.459,-0.059 0.469,-0.044C0.479,-0.029 0.484,-0.01 0.484,0.013C0.484,0.035 0.478,0.056 0.467,0.076C0.456,0.096 0.441,0.114 0.421,0.13C0.4,0.146 0.375,0.159 0.346,0.168C0.317,0.178 0.284,0.183 0.247,0.183C0.21,0.183 0.177,0.179 0.149,0.172C0.121,0.164 0.098,0.154 0.08,0.142C0.062,0.13 0.048,0.115 0.039,0.099C0.03,0.083 0.025,0.066 0.025,0.049C0.025,0.024 0.033,0.002 0.049,-0.015C0.065,-0.033 0.086,-0.047 0.114,-0.057C0.1,-0.064 0.088,-0.073 0.08,-0.084C0.071,-0.095 0.067,-0.11 0.067,-0.129C0.067,-0.136 0.068,-0.143 0.071,-0.151C0.074,-0.159 0.078,-0.167 0.083,-0.175C0.089,-0.182 0.095,-0.19 0.104,-0.197C0.112,-0.204 0.121,-0.21 0.132,-0.215C0.107,-0.229 0.087,-0.248 0.073,-0.271C0.059,-0.294 0.052,-0.321 0.052,-0.352C0.052,-0.377 0.056,-0.399 0.066,-0.419C0.075,-0.439 0.089,-0.457 0.106,-0.471C0.123,-0.485 0.143,-0.496 0.166,-0.504C0.19,-0.511 0.216,-0.515 0.244,-0.515ZM0.402,0.028C0.402,0.015 0.398,0.005 0.391,-0.003C0.384,-0.011 0.375,-0.017 0.363,-0.021C0.351,-0.025 0.337,-0.028 0.321,-0.03C0.305,-0.032 0.289,-0.033 0.272,-0.034C0.254,-0.035 0.237,-0.036 0.219,-0.037C0.201,-0.038 0.183,-0.04 0.167,-0.043C0.148,-0.034 0.133,-0.023 0.121,-0.01C0.109,0.004 0.103,0.019 0.103,0.037C0.103,0.048 0.106,0.059 0.112,0.069C0.118,0.079 0.127,0.087 0.139,0.094C0.151,0.101 0.166,0.107 0.184,0.111C0.202,0.115 0.223,0.118 0.248,0.118C0.272,0.118 0.294,0.115 0.313,0.111C0.332,0.107 0.348,0.1 0.361,0.093C0.374,0.085 0.384,0.075 0.391,0.064C0.398,0.053 0.402,0.041 0.402,0.028ZM0.244,-0.248C0.262,-0.247 0.277,-0.25 0.291,-0.255C0.305,-0.26 0.317,-0.267 0.326,-0.276C0.335,-0.285 0.342,-0.296 0.347,-0.308C0.352,-0.321 0.354,-0.335 0.354,-0.35C0.354,-0.381 0.345,-0.405 0.326,-0.424C0.307,-0.442 0.28,-0.451 0.244,-0.451C0.208,-0.451 0.181,-0.442 0.162,-0.424C0.143,-0.405 0.134,-0.381 0.134,-0.35C0.134,-0.335 0.136,-0.321 0.141,-0.308C0.146,-0.296 0.153,-0.285 0.162,-0.276C0.171,-0.267 0.183,-0.26 0.197,-0.255C0.21,-0.25 0.226,-0.247 0.244,-0.248Z" style="fill:rgb(30,180,212);fill-rule:nonzero;"/>
                        </g>
                        <g transform="matrix(15.8888,0,0,15.8888,21.1798,0)">
                            <path d="M0.073,-0L0.073,-0.507L0.126,-0.507C0.139,-0.507 0.147,-0.5 0.15,-0.488L0.157,-0.436C0.175,-0.459 0.196,-0.478 0.219,-0.493C0.242,-0.507 0.269,-0.515 0.3,-0.515C0.334,-0.515 0.362,-0.505 0.383,-0.486C0.404,-0.467 0.42,-0.441 0.429,-0.409C0.436,-0.427 0.445,-0.443 0.457,-0.457C0.468,-0.47 0.481,-0.481 0.496,-0.49C0.51,-0.498 0.525,-0.505 0.541,-0.509C0.557,-0.513 0.574,-0.515 0.591,-0.515C0.617,-0.515 0.641,-0.51 0.662,-0.502C0.683,-0.493 0.7,-0.481 0.715,-0.465C0.729,-0.448 0.74,-0.428 0.748,-0.404C0.756,-0.38 0.76,-0.353 0.76,-0.323L0.76,-0L0.671,-0L0.671,-0.323C0.671,-0.362 0.662,-0.392 0.645,-0.413C0.627,-0.433 0.602,-0.444 0.569,-0.444C0.554,-0.444 0.54,-0.441 0.527,-0.436C0.514,-0.431 0.503,-0.423 0.493,-0.413C0.483,-0.403 0.475,-0.39 0.469,-0.375C0.463,-0.36 0.46,-0.342 0.46,-0.323L0.46,-0L0.371,-0L0.371,-0.323C0.371,-0.363 0.363,-0.394 0.347,-0.414C0.33,-0.434 0.306,-0.444 0.275,-0.444C0.253,-0.444 0.233,-0.438 0.214,-0.426C0.195,-0.414 0.178,-0.398 0.162,-0.378L0.162,-0L0.073,-0Z" style="fill:rgb(30,180,212);fill-rule:nonzero;"/>
                        </g>
                        <g transform="matrix(15.8888,0,0,15.8888,34.2245,0)">
                            <path d="M0.445,-0L0.406,-0C0.397,-0 0.39,-0.001 0.385,-0.004C0.379,-0.007 0.376,-0.012 0.374,-0.021L0.364,-0.068C0.351,-0.056 0.338,-0.045 0.325,-0.036C0.312,-0.026 0.299,-0.018 0.285,-0.012C0.271,-0.005 0.256,-0 0.24,0.003C0.224,0.006 0.207,0.008 0.188,0.008C0.168,0.008 0.149,0.005 0.132,-0C0.115,-0.006 0.1,-0.014 0.088,-0.025C0.075,-0.036 0.065,-0.05 0.057,-0.067C0.05,-0.084 0.046,-0.103 0.046,-0.127C0.046,-0.147 0.051,-0.166 0.063,-0.184C0.074,-0.203 0.091,-0.219 0.116,-0.234C0.14,-0.248 0.172,-0.26 0.212,-0.269C0.252,-0.278 0.3,-0.283 0.358,-0.285L0.358,-0.324C0.358,-0.363 0.349,-0.393 0.332,-0.413C0.315,-0.433 0.291,-0.444 0.258,-0.444C0.236,-0.444 0.218,-0.441 0.203,-0.435C0.188,-0.43 0.175,-0.424 0.164,-0.417C0.153,-0.41 0.144,-0.404 0.136,-0.398C0.128,-0.393 0.121,-0.39 0.113,-0.39C0.107,-0.39 0.102,-0.392 0.097,-0.395C0.093,-0.398 0.089,-0.402 0.087,-0.407L0.071,-0.435C0.098,-0.462 0.129,-0.482 0.161,-0.496C0.193,-0.509 0.229,-0.516 0.269,-0.516C0.297,-0.516 0.322,-0.511 0.344,-0.502C0.366,-0.492 0.385,-0.479 0.4,-0.463C0.415,-0.446 0.426,-0.426 0.434,-0.402C0.441,-0.378 0.445,-0.352 0.445,-0.324L0.445,-0ZM0.214,-0.055C0.23,-0.055 0.244,-0.056 0.257,-0.059C0.27,-0.062 0.282,-0.067 0.294,-0.073C0.305,-0.079 0.316,-0.086 0.327,-0.094C0.337,-0.102 0.347,-0.112 0.358,-0.123L0.358,-0.228C0.317,-0.227 0.282,-0.223 0.253,-0.218C0.224,-0.213 0.201,-0.206 0.183,-0.198C0.165,-0.19 0.152,-0.18 0.144,-0.169C0.136,-0.157 0.132,-0.145 0.132,-0.131C0.132,-0.117 0.134,-0.106 0.138,-0.096C0.142,-0.086 0.148,-0.078 0.156,-0.072C0.163,-0.066 0.171,-0.062 0.182,-0.059C0.192,-0.056 0.202,-0.055 0.214,-0.055Z" style="fill:rgb(30,180,212);fill-rule:nonzero;"/>
                        </g>
                        <g transform="matrix(15.8888,0,0,15.8888,45.3467,0)">
                            <path d="M0.004,-0.513L0.102,-0.513C0.111,-0.513 0.119,-0.511 0.125,-0.507C0.131,-0.502 0.135,-0.497 0.137,-0.49L0.211,-0.216C0.215,-0.201 0.218,-0.186 0.22,-0.172C0.223,-0.158 0.225,-0.143 0.228,-0.129C0.231,-0.143 0.235,-0.158 0.239,-0.172C0.243,-0.186 0.248,-0.201 0.253,-0.216L0.338,-0.491C0.339,-0.498 0.343,-0.503 0.35,-0.508C0.356,-0.512 0.363,-0.514 0.371,-0.514L0.425,-0.514C0.434,-0.514 0.442,-0.512 0.448,-0.508C0.454,-0.503 0.458,-0.498 0.46,-0.491L0.544,-0.211C0.548,-0.197 0.552,-0.183 0.555,-0.169C0.559,-0.156 0.562,-0.142 0.566,-0.129C0.568,-0.143 0.57,-0.157 0.573,-0.172C0.576,-0.186 0.58,-0.201 0.584,-0.216L0.66,-0.49C0.662,-0.497 0.666,-0.502 0.672,-0.507C0.678,-0.511 0.686,-0.513 0.694,-0.513L0.788,-0.513L0.625,-0L0.526,-0C0.515,-0 0.507,-0.007 0.503,-0.022L0.41,-0.319C0.407,-0.328 0.404,-0.338 0.402,-0.348C0.399,-0.358 0.397,-0.367 0.396,-0.377C0.394,-0.367 0.391,-0.357 0.389,-0.347C0.387,-0.337 0.384,-0.328 0.381,-0.318L0.288,-0.022C0.283,-0.007 0.274,-0 0.261,-0L0.166,-0L0.004,-0.513Z" style="fill:rgb(30,180,212);fill-rule:nonzero;"/>
                        </g>
                        <g transform="matrix(15.8888,0,0,15.8888,57.9147,0)">
                            <path d="M0.198,-0.513L0.198,-0L0.074,-0L0.074,-0.513L0.198,-0.513ZM0.216,-0.663C0.216,-0.652 0.214,-0.642 0.21,-0.633C0.205,-0.623 0.199,-0.615 0.192,-0.608C0.185,-0.601 0.177,-0.595 0.167,-0.591C0.157,-0.587 0.147,-0.585 0.136,-0.585C0.125,-0.585 0.115,-0.587 0.106,-0.591C0.096,-0.595 0.088,-0.601 0.081,-0.608C0.074,-0.615 0.068,-0.623 0.064,-0.633C0.06,-0.642 0.058,-0.652 0.058,-0.663C0.058,-0.674 0.06,-0.684 0.064,-0.694C0.068,-0.703 0.074,-0.712 0.081,-0.719C0.088,-0.725 0.096,-0.731 0.106,-0.735C0.115,-0.739 0.125,-0.741 0.136,-0.742C0.147,-0.741 0.157,-0.739 0.167,-0.735C0.177,-0.731 0.185,-0.725 0.192,-0.719C0.199,-0.712 0.205,-0.703 0.21,-0.694C0.214,-0.684 0.216,-0.674 0.216,-0.663Z" style="fill:rgb(30,180,212);fill-rule:nonzero;"/>
                        </g>
                        <g transform="matrix(15.8888,0,0,15.8888,62.2206,0)">
                            <path d="M0.066,-0L0.066,-0.513L0.139,-0.513C0.151,-0.513 0.16,-0.511 0.165,-0.506C0.17,-0.501 0.173,-0.493 0.175,-0.482L0.183,-0.42C0.201,-0.452 0.222,-0.477 0.247,-0.495C0.272,-0.513 0.299,-0.523 0.33,-0.523C0.355,-0.523 0.376,-0.517 0.393,-0.505L0.377,-0.413C0.376,-0.407 0.374,-0.402 0.371,-0.4C0.367,-0.397 0.363,-0.396 0.357,-0.396C0.352,-0.396 0.345,-0.397 0.337,-0.4C0.328,-0.402 0.316,-0.403 0.302,-0.403C0.276,-0.403 0.254,-0.396 0.236,-0.382C0.218,-0.368 0.202,-0.347 0.19,-0.32L0.19,-0L0.066,-0Z" style="fill:rgb(30,180,212);fill-rule:nonzero;"/>
                        </g>
                        <g transform="matrix(15.8888,0,0,15.8888,68.7112,0)">
                            <path d="M0.278,-0.521C0.31,-0.521 0.34,-0.516 0.367,-0.506C0.394,-0.495 0.418,-0.48 0.438,-0.46C0.457,-0.44 0.472,-0.416 0.484,-0.387C0.495,-0.358 0.5,-0.326 0.5,-0.289C0.5,-0.279 0.5,-0.271 0.499,-0.265C0.498,-0.259 0.496,-0.254 0.494,-0.251C0.492,-0.247 0.489,-0.245 0.486,-0.243C0.482,-0.242 0.477,-0.241 0.472,-0.241L0.155,-0.241C0.158,-0.188 0.172,-0.15 0.197,-0.125C0.222,-0.1 0.254,-0.088 0.295,-0.088C0.315,-0.088 0.332,-0.09 0.347,-0.095C0.361,-0.1 0.374,-0.105 0.385,-0.111C0.396,-0.116 0.405,-0.121 0.413,-0.126C0.421,-0.131 0.429,-0.133 0.437,-0.133C0.442,-0.133 0.446,-0.132 0.45,-0.13C0.454,-0.128 0.457,-0.125 0.46,-0.122L0.496,-0.077C0.482,-0.061 0.467,-0.047 0.45,-0.036C0.432,-0.025 0.415,-0.017 0.396,-0.01C0.378,-0.004 0.359,0.001 0.34,0.004C0.321,0.006 0.302,0.008 0.284,0.008C0.248,0.008 0.215,0.002 0.185,-0.01C0.154,-0.022 0.127,-0.04 0.105,-0.063C0.082,-0.086 0.064,-0.115 0.051,-0.149C0.038,-0.183 0.032,-0.223 0.032,-0.268C0.032,-0.303 0.037,-0.335 0.049,-0.366C0.06,-0.397 0.076,-0.424 0.097,-0.447C0.118,-0.47 0.144,-0.488 0.175,-0.501C0.205,-0.514 0.24,-0.521 0.278,-0.521ZM0.281,-0.433C0.245,-0.432 0.216,-0.422 0.196,-0.402C0.176,-0.382 0.163,-0.353 0.157,-0.316L0.389,-0.316C0.389,-0.332 0.387,-0.347 0.383,-0.361C0.378,-0.375 0.372,-0.387 0.363,-0.398C0.354,-0.409 0.342,-0.417 0.329,-0.423C0.315,-0.429 0.299,-0.432 0.281,-0.433Z" style="fill:rgb(30,180,212);fill-rule:nonzero;"/>
                        </g>
                        <g transform="matrix(15.8888,0,0,15.8888,77.2037,0)">
                            <path d="M0.088,-0L0.088,-0.42L0.044,-0.427C0.034,-0.429 0.026,-0.432 0.02,-0.437C0.014,-0.442 0.012,-0.449 0.012,-0.458L0.012,-0.509L0.088,-0.509L0.088,-0.547C0.088,-0.576 0.092,-0.602 0.101,-0.626C0.11,-0.649 0.123,-0.669 0.139,-0.685C0.156,-0.701 0.176,-0.714 0.2,-0.723C0.223,-0.731 0.25,-0.736 0.28,-0.736C0.303,-0.736 0.325,-0.732 0.346,-0.726L0.343,-0.664C0.342,-0.654 0.338,-0.648 0.33,-0.646C0.321,-0.644 0.312,-0.643 0.301,-0.643C0.286,-0.643 0.273,-0.641 0.261,-0.638C0.25,-0.635 0.24,-0.629 0.232,-0.621C0.224,-0.613 0.218,-0.603 0.214,-0.59C0.21,-0.577 0.208,-0.562 0.208,-0.543L0.208,-0.509L0.341,-0.509L0.341,-0.421L0.212,-0.421L0.212,-0L0.088,-0Z" style="fill:rgb(30,180,212);fill-rule:nonzero;"/>
                        </g>
                        <g transform="matrix(15.8888,0,0,15.8888,82.7728,0)">
                            <path d="M0.066,-0L0.066,-0.513L0.139,-0.513C0.151,-0.513 0.16,-0.511 0.165,-0.506C0.17,-0.501 0.173,-0.493 0.175,-0.482L0.183,-0.42C0.201,-0.452 0.222,-0.477 0.247,-0.495C0.272,-0.513 0.299,-0.523 0.33,-0.523C0.355,-0.523 0.376,-0.517 0.393,-0.505L0.377,-0.413C0.376,-0.407 0.374,-0.402 0.371,-0.4C0.367,-0.397 0.363,-0.396 0.357,-0.396C0.352,-0.396 0.345,-0.397 0.337,-0.4C0.328,-0.402 0.316,-0.403 0.302,-0.403C0.276,-0.403 0.254,-0.396 0.236,-0.382C0.218,-0.368 0.202,-0.347 0.19,-0.32L0.19,-0L0.066,-0Z" style="fill:rgb(30,180,212);fill-rule:nonzero;"/>
                        </g>
                        <g transform="matrix(15.8888,0,0,15.8888,89.0329,0)">
                            <path d="M0.468,-0L0.413,-0C0.401,-0 0.392,-0.002 0.385,-0.005C0.378,-0.009 0.373,-0.016 0.37,-0.027L0.359,-0.063C0.346,-0.051 0.333,-0.041 0.321,-0.032C0.308,-0.023 0.295,-0.016 0.282,-0.01C0.269,-0.004 0.255,0.001 0.24,0.004C0.225,0.007 0.208,0.008 0.19,0.008C0.168,0.008 0.148,0.005 0.13,-0.001C0.111,-0.007 0.095,-0.015 0.082,-0.027C0.069,-0.039 0.059,-0.053 0.052,-0.071C0.044,-0.088 0.041,-0.108 0.041,-0.131C0.041,-0.15 0.046,-0.169 0.056,-0.188C0.066,-0.207 0.083,-0.224 0.107,-0.239C0.13,-0.254 0.162,-0.267 0.201,-0.277C0.24,-0.287 0.289,-0.293 0.348,-0.294L0.348,-0.324C0.347,-0.358 0.34,-0.384 0.326,-0.4C0.311,-0.417 0.29,-0.425 0.263,-0.425C0.243,-0.425 0.226,-0.423 0.213,-0.418C0.199,-0.413 0.188,-0.408 0.178,-0.402C0.168,-0.396 0.159,-0.391 0.151,-0.387C0.142,-0.382 0.133,-0.38 0.123,-0.38C0.115,-0.38 0.108,-0.382 0.102,-0.386C0.095,-0.39 0.091,-0.396 0.087,-0.402L0.065,-0.442C0.124,-0.496 0.195,-0.523 0.278,-0.523C0.308,-0.523 0.335,-0.518 0.358,-0.508C0.382,-0.498 0.402,-0.484 0.418,-0.467C0.434,-0.449 0.447,-0.428 0.455,-0.404C0.464,-0.38 0.468,-0.353 0.468,-0.324L0.468,-0ZM0.228,-0.077C0.241,-0.077 0.252,-0.078 0.263,-0.081C0.274,-0.083 0.284,-0.086 0.293,-0.091C0.303,-0.096 0.312,-0.101 0.321,-0.108C0.33,-0.115 0.339,-0.123 0.348,-0.133L0.348,-0.219C0.312,-0.217 0.281,-0.214 0.257,-0.21C0.233,-0.205 0.214,-0.2 0.199,-0.193C0.184,-0.186 0.174,-0.177 0.168,-0.168C0.162,-0.159 0.159,-0.149 0.159,-0.138C0.159,-0.116 0.165,-0.1 0.178,-0.091C0.191,-0.082 0.207,-0.077 0.228,-0.077Z" style="fill:rgb(30,180,212);fill-rule:nonzero;"/>
                        </g>
                        <g transform="matrix(15.8888,0,0,15.8888,97.3507,0)">
                            <path d="M0.066,-0L0.066,-0.513L0.142,-0.513C0.158,-0.513 0.168,-0.505 0.173,-0.491L0.181,-0.453C0.19,-0.463 0.199,-0.472 0.209,-0.48C0.219,-0.488 0.23,-0.496 0.241,-0.502C0.252,-0.508 0.264,-0.512 0.277,-0.516C0.29,-0.519 0.304,-0.521 0.319,-0.521C0.351,-0.521 0.378,-0.512 0.399,-0.495C0.42,-0.477 0.435,-0.454 0.446,-0.425C0.454,-0.442 0.464,-0.457 0.476,-0.469C0.488,-0.481 0.501,-0.491 0.515,-0.499C0.529,-0.506 0.545,-0.512 0.561,-0.516C0.577,-0.519 0.593,-0.521 0.61,-0.521C0.638,-0.521 0.663,-0.517 0.685,-0.508C0.707,-0.499 0.725,-0.487 0.741,-0.47C0.756,-0.453 0.767,-0.433 0.775,-0.409C0.783,-0.385 0.786,-0.358 0.787,-0.327L0.787,-0L0.663,-0L0.663,-0.327C0.663,-0.359 0.656,-0.384 0.642,-0.4C0.627,-0.417 0.606,-0.425 0.579,-0.425C0.566,-0.425 0.554,-0.423 0.543,-0.419C0.532,-0.414 0.523,-0.408 0.515,-0.4C0.507,-0.392 0.5,-0.381 0.496,-0.369C0.491,-0.357 0.489,-0.343 0.489,-0.327L0.489,-0L0.365,-0L0.365,-0.327C0.365,-0.361 0.358,-0.386 0.344,-0.402C0.33,-0.417 0.31,-0.425 0.283,-0.425C0.265,-0.425 0.248,-0.421 0.233,-0.412C0.217,-0.403 0.203,-0.391 0.19,-0.376L0.19,-0L0.066,-0Z" style="fill:rgb(30,180,212);fill-rule:nonzero;"/>
                        </g>
                        <g transform="matrix(15.8888,0,0,15.8888,110.729,0)">
                            <path d="M0.278,-0.521C0.31,-0.521 0.34,-0.516 0.367,-0.506C0.394,-0.495 0.418,-0.48 0.438,-0.46C0.457,-0.44 0.472,-0.416 0.484,-0.387C0.495,-0.358 0.5,-0.326 0.5,-0.289C0.5,-0.279 0.5,-0.271 0.499,-0.265C0.498,-0.259 0.496,-0.254 0.494,-0.251C0.492,-0.247 0.489,-0.245 0.486,-0.243C0.482,-0.242 0.477,-0.241 0.472,-0.241L0.155,-0.241C0.158,-0.188 0.172,-0.15 0.197,-0.125C0.222,-0.1 0.254,-0.088 0.295,-0.088C0.315,-0.088 0.332,-0.09 0.347,-0.095C0.361,-0.1 0.374,-0.105 0.385,-0.111C0.396,-0.116 0.405,-0.121 0.413,-0.126C0.421,-0.131 0.429,-0.133 0.437,-0.133C0.442,-0.133 0.446,-0.132 0.45,-0.13C0.454,-0.128 0.457,-0.125 0.46,-0.122L0.496,-0.077C0.482,-0.061 0.467,-0.047 0.45,-0.036C0.432,-0.025 0.415,-0.017 0.396,-0.01C0.378,-0.004 0.359,0.001 0.34,0.004C0.321,0.006 0.302,0.008 0.284,0.008C0.248,0.008 0.215,0.002 0.185,-0.01C0.154,-0.022 0.127,-0.04 0.105,-0.063C0.082,-0.086 0.064,-0.115 0.051,-0.149C0.038,-0.183 0.032,-0.223 0.032,-0.268C0.032,-0.303 0.037,-0.335 0.049,-0.366C0.06,-0.397 0.076,-0.424 0.097,-0.447C0.118,-0.47 0.144,-0.488 0.175,-0.501C0.205,-0.514 0.24,-0.521 0.278,-0.521ZM0.281,-0.433C0.245,-0.432 0.216,-0.422 0.196,-0.402C0.176,-0.382 0.163,-0.353 0.157,-0.316L0.389,-0.316C0.389,-0.332 0.387,-0.347 0.383,-0.361C0.378,-0.375 0.372,-0.387 0.363,-0.398C0.354,-0.409 0.342,-0.417 0.329,-0.423C0.315,-0.429 0.299,-0.432 0.281,-0.433Z" style="fill:rgb(30,180,212);fill-rule:nonzero;"/>
                        </g>
                        <g transform="matrix(15.8888,0,0,15.8888,119.222,0)">
                            <path d="M0.371,-0.413C0.367,-0.408 0.364,-0.404 0.36,-0.402C0.356,-0.4 0.352,-0.399 0.346,-0.399C0.34,-0.399 0.334,-0.4 0.327,-0.404C0.32,-0.407 0.312,-0.411 0.303,-0.415C0.294,-0.419 0.284,-0.423 0.272,-0.426C0.261,-0.429 0.247,-0.431 0.232,-0.431C0.207,-0.431 0.188,-0.426 0.174,-0.416C0.16,-0.405 0.153,-0.392 0.153,-0.375C0.153,-0.364 0.157,-0.355 0.164,-0.347C0.171,-0.34 0.18,-0.333 0.192,-0.328C0.204,-0.322 0.218,-0.317 0.233,-0.312C0.248,-0.308 0.263,-0.303 0.279,-0.298C0.294,-0.292 0.31,-0.286 0.325,-0.279C0.339,-0.272 0.353,-0.264 0.365,-0.253C0.377,-0.243 0.386,-0.23 0.393,-0.216C0.4,-0.201 0.404,-0.183 0.404,-0.163C0.404,-0.138 0.4,-0.115 0.391,-0.094C0.382,-0.073 0.368,-0.055 0.351,-0.04C0.334,-0.025 0.312,-0.013 0.287,-0.005C0.261,0.004 0.232,0.008 0.199,0.008C0.181,0.008 0.164,0.006 0.147,0.003C0.13,0 0.114,-0.004 0.099,-0.01C0.083,-0.016 0.069,-0.022 0.056,-0.03C0.043,-0.038 0.031,-0.046 0.021,-0.055L0.05,-0.102C0.053,-0.108 0.057,-0.112 0.063,-0.115C0.068,-0.118 0.074,-0.12 0.082,-0.12C0.089,-0.12 0.096,-0.117 0.103,-0.113C0.11,-0.109 0.118,-0.104 0.127,-0.099C0.136,-0.094 0.147,-0.089 0.159,-0.085C0.171,-0.081 0.186,-0.079 0.205,-0.079C0.22,-0.079 0.232,-0.08 0.243,-0.084C0.253,-0.087 0.262,-0.092 0.269,-0.098C0.276,-0.103 0.281,-0.11 0.284,-0.117C0.287,-0.125 0.289,-0.133 0.289,-0.141C0.289,-0.153 0.285,-0.162 0.278,-0.17C0.271,-0.178 0.261,-0.184 0.249,-0.19C0.237,-0.196 0.224,-0.201 0.209,-0.205C0.194,-0.21 0.178,-0.215 0.162,-0.22C0.146,-0.225 0.131,-0.232 0.116,-0.239C0.101,-0.246 0.087,-0.255 0.075,-0.266C0.063,-0.277 0.054,-0.291 0.047,-0.307C0.04,-0.323 0.036,-0.342 0.036,-0.365C0.036,-0.386 0.04,-0.405 0.049,-0.425C0.057,-0.444 0.069,-0.46 0.085,-0.474C0.101,-0.488 0.122,-0.5 0.146,-0.508C0.17,-0.517 0.198,-0.521 0.23,-0.521C0.265,-0.521 0.297,-0.515 0.326,-0.504C0.355,-0.492 0.379,-0.476 0.399,-0.458L0.371,-0.413Z" style="fill:rgb(30,180,212);fill-rule:nonzero;"/>
                        </g>
                    </g>
                </g>
            </g>
        </g>
        <g transform="matrix(1,0,0,1,65.9885,26.6134)">
            <g id="text891">
                <g>
                    <g transform="matrix(20.126,0,0,20.126,0,0)">
                        <path d="M0.162,-0L0.162,-0.331L0.008,-0.81L0.177,-0.81L0.254,-0.554L0.323,-0.81L0.485,-0.81L0.334,-0.331L0.334,-0L0.162,-0Z" style="fill:white;fill-rule:nonzero;"/>
                    </g>
                    <g transform="matrix(20.126,0,0,20.126,9.11706,0)">
                        <path d="M0.021,-0L0.174,-0.81L0.378,-0.81L0.529,-0L0.364,-0L0.337,-0.171L0.218,-0.171L0.19,-0L0.021,-0ZM0.234,-0.278L0.32,-0.278L0.277,-0.594L0.234,-0.278Z" style="fill:white;fill-rule:nonzero;"/>
                    </g>
                    <g transform="matrix(20.126,0,0,20.126,20.2065,0)">
                        <path d="M0.152,-0L0.152,-0.726L0.015,-0.726L0.015,-0.81L0.398,-0.81L0.398,-0.726L0.265,-0.726L0.265,-0L0.152,-0Z" style="fill:white;fill-rule:nonzero;"/>
                    </g>
                    <g transform="matrix(20.126,0,0,20.126,28.5185,0)">
                        <path d="M0.27,0.009C0.215,0.009 0.172,-0.002 0.139,-0.023C0.106,-0.044 0.083,-0.075 0.069,-0.115C0.055,-0.154 0.048,-0.201 0.048,-0.254L0.048,-0.561C0.048,-0.614 0.055,-0.66 0.07,-0.699C0.084,-0.737 0.107,-0.766 0.14,-0.787C0.172,-0.807 0.215,-0.817 0.27,-0.817C0.325,-0.817 0.368,-0.807 0.4,-0.786C0.432,-0.765 0.455,-0.736 0.47,-0.698C0.484,-0.66 0.491,-0.614 0.491,-0.561L0.491,-0.253C0.491,-0.2 0.484,-0.154 0.47,-0.115C0.455,-0.076 0.432,-0.045 0.4,-0.024C0.368,-0.002 0.325,0.009 0.27,0.009ZM0.27,-0.08C0.3,-0.08 0.323,-0.086 0.338,-0.099C0.353,-0.111 0.364,-0.128 0.369,-0.151C0.374,-0.173 0.377,-0.199 0.377,-0.229L0.377,-0.584C0.377,-0.614 0.374,-0.64 0.369,-0.662C0.364,-0.683 0.353,-0.7 0.338,-0.712C0.323,-0.723 0.3,-0.729 0.27,-0.729C0.24,-0.729 0.217,-0.723 0.202,-0.712C0.186,-0.7 0.175,-0.683 0.17,-0.662C0.165,-0.64 0.162,-0.614 0.162,-0.584L0.162,-0.229C0.162,-0.199 0.165,-0.173 0.17,-0.151C0.175,-0.128 0.186,-0.111 0.202,-0.099C0.217,-0.086 0.24,-0.08 0.27,-0.08Z" style="fill:white;fill-rule:nonzero;"/>
                    </g>
                    <g transform="matrix(20.126,0,0,20.126,39.3664,0)">
                        <path d="M0.063,-0L0.063,-0.81L0.239,-0.81C0.299,-0.81 0.347,-0.801 0.382,-0.783C0.417,-0.764 0.442,-0.737 0.457,-0.7C0.472,-0.663 0.479,-0.618 0.479,-0.563L0.479,-0.265C0.479,-0.208 0.472,-0.159 0.457,-0.12C0.442,-0.081 0.417,-0.051 0.384,-0.031C0.35,-0.01 0.305,-0 0.248,-0L0.063,-0ZM0.176,-0.081L0.24,-0.081C0.281,-0.081 0.311,-0.089 0.328,-0.105C0.345,-0.121 0.356,-0.144 0.36,-0.175C0.363,-0.206 0.365,-0.243 0.365,-0.286L0.365,-0.549C0.365,-0.591 0.362,-0.625 0.357,-0.651C0.352,-0.677 0.34,-0.696 0.322,-0.708C0.304,-0.72 0.276,-0.726 0.237,-0.726L0.176,-0.726L0.176,-0.081Z" style="fill:white;fill-rule:nonzero;"/>
                    </g>
                    <g transform="matrix(20.126,0,0,20.126,49.9727,0)">
                        <path d="M0.27,0.009C0.215,0.009 0.172,-0.002 0.139,-0.023C0.106,-0.044 0.083,-0.075 0.069,-0.115C0.055,-0.154 0.048,-0.201 0.048,-0.254L0.048,-0.561C0.048,-0.614 0.055,-0.66 0.07,-0.699C0.084,-0.737 0.107,-0.766 0.14,-0.787C0.172,-0.807 0.215,-0.817 0.27,-0.817C0.325,-0.817 0.368,-0.807 0.4,-0.786C0.432,-0.765 0.455,-0.736 0.47,-0.698C0.484,-0.66 0.491,-0.614 0.491,-0.561L0.491,-0.253C0.491,-0.2 0.484,-0.154 0.47,-0.115C0.455,-0.076 0.432,-0.045 0.4,-0.024C0.368,-0.002 0.325,0.009 0.27,0.009ZM0.27,-0.08C0.3,-0.08 0.323,-0.086 0.338,-0.099C0.353,-0.111 0.364,-0.128 0.369,-0.151C0.374,-0.173 0.377,-0.199 0.377,-0.229L0.377,-0.584C0.377,-0.614 0.374,-0.64 0.369,-0.662C0.364,-0.683 0.353,-0.7 0.338,-0.712C0.323,-0.723 0.3,-0.729 0.27,-0.729C0.24,-0.729 0.217,-0.723 0.202,-0.712C0.186,-0.7 0.175,-0.683 0.17,-0.662C0.165,-0.64 0.162,-0.614 0.162,-0.584L0.162,-0.229C0.162,-0.199 0.165,-0.173 0.17,-0.151C0.175,-0.128 0.186,-0.111 0.202,-0.099C0.217,-0.086 0.24,-0.08 0.27,-0.08Z" style="fill:white;fill-rule:nonzero;"/>
                    </g>
                </g>
            </g>
        </g>
        <g transform="matrix(0.692904,0,0,0.692904,21.1668,13.9764)">
            <path id="path0_fill" d="M19.127,49.505C23.543,49.505 27.127,45.921 27.127,41.505L27.127,33.505L19.127,33.505C14.711,33.505 11.127,37.089 11.127,41.505C11.127,45.921 14.711,49.505 19.127,49.505Z" style="fill:rgb(10,207,131);fill-rule:nonzero;"/>
            <path id="path1_fill" d="M11.127,25.506C11.127,21.09 14.711,17.506 19.127,17.506L27.127,17.506L27.127,33.505L19.127,33.505C14.712,33.505 11.127,29.922 11.127,25.505L11.127,25.506Z" style="fill:rgb(162,89,255);fill-rule:nonzero;"/>
            <path id="path1_fill_1_" d="M11.127,9.506C11.127,5.09 14.711,1.506 19.127,1.506L27.127,1.506L27.127,17.505L19.127,17.505C14.712,17.505 11.127,13.922 11.127,9.506L11.127,9.506Z" style="fill:rgb(242,78,30);fill-rule:nonzero;"/>
            <path id="path2_fill" d="M27.127,1.506L35.127,1.506C39.543,1.506 43.127,5.09 43.127,9.506C43.127,13.922 39.543,17.506 35.127,17.506L27.127,17.506L27.127,1.506Z" style="fill:rgb(255,114,98);fill-rule:nonzero;"/>
            <path id="path3_fill" d="M43.127,25.506C43.127,29.922 39.543,33.506 35.127,33.506C30.712,33.506 27.127,29.922 27.127,25.506C27.127,21.09 30.711,17.506 35.127,17.506C39.543,17.506 43.127,21.09 43.127,25.506Z" style="fill:rgb(26,188,254);fill-rule:nonzero;"/>
        </g>
    </g>
</svg>
