<?xml version="1.0" encoding="UTF-8" standalone="no"?>
<!DOCTYPE svg PUBLIC "-//W3C//DTD SVG 1.1//EN" "http://www.w3.org/Graphics/SVG/1.1/DTD/svg11.dtd">
<svg width="100%" height="100%" viewBox="0 0 512 256" version="1.1" xmlns="http://www.w3.org/2000/svg" xmlns:xlink="http://www.w3.org/1999/xlink" xml:space="preserve" xmlns:serif="http://www.serif.com/" style="fill-rule:evenodd;clip-rule:evenodd;stroke-linecap:round;stroke-linejoin:round;stroke-miterlimit:1.5;">
    <g transform="matrix(1,0,0,1,-4,7.25)">
        <g>
            <g transform="matrix(0.870937,0,0,0.870937,2.08487,33.7171)">
                <g transform="matrix(0.957413,0,0,0.957413,-14.1336,3.25695)">
                    <circle cx="110" cy="150" r="70" style="fill:none;stroke:white;stroke-width:5px;"/>
                </g>
                <g transform="matrix(0.947791,-0.947791,0.947791,0.947791,-120.504,104.751)">
                    <g transform="matrix(0.0882157,0.0882157,-0.0882157,0.0882157,168.294,80.3598)">
                        <path d="M315.947,301.227L376.32,240.853L430.293,230.187C498.987,136.747 630.4,90.027 677.973,90.027C677.973,137.6 631.253,269.013 537.813,337.707L527.147,391.68L466.773,452.053L451.627,376.747C421.547,376.747 421.547,376.747 406.4,361.6C391.253,346.453 391.253,346.453 391.253,316.373L315.947,301.227M533.333,202.667C515.779,202.667 501.333,217.112 501.333,234.667C501.333,252.221 515.779,266.667 533.333,266.667C550.888,266.667 565.333,252.221 565.333,234.667C565.333,217.112 550.888,202.667 533.333,202.667Z" style="fill:white;fill-rule:nonzero;"/>
                    </g>
                    <path d="M66.383,112.809L66.383,153L158.925,158.133C162.502,158.133 169.96,150.643 170.003,148.109C170.048,145.441 162.502,137.031 158.925,137.031L80,140L80,112.809C80,109.051 76.949,106 73.191,106C69.434,106 66.383,109.051 66.383,112.809Z" style="fill:white;"/>
                </g>
            </g>
            <g>
                <g transform="matrix(1.23357,0,0,1.18034,-41.5182,31.9174)">
                    <ellipse cx="143.605" cy="20.403" rx="4.864" ry="5.083" style="fill:white;stroke:white;stroke-width:3.45px;"/>
                </g>
                <g transform="matrix(0.822381,0,0,0.786893,-44.0976,55.4449)">
                    <ellipse cx="143.605" cy="20.403" rx="4.864" ry="5.083" style="fill:white;stroke:white;stroke-width:5.18px;"/>
                </g>
                <g transform="matrix(0.41119,0,0,0.393446,44.9512,19.4725)">
                    <ellipse cx="143.605" cy="20.403" rx="4.864" ry="5.083" style="fill:white;stroke:white;stroke-width:10.35px;"/>
                </g>
            </g>
        </g>
        <g transform="matrix(1.3862,0,0,1.3862,-159.881,31.7472)">
            <path d="M275.101,124.473L275.101,103.881L262.501,66.153L270.061,66.153L278.989,94.305L287.773,66.153L295.405,66.153L282.877,103.881L282.877,124.473L275.101,124.473Z" style="fill:white;fill-rule:nonzero;stroke:white;stroke-width:0.72px;stroke-linecap:butt;stroke-miterlimit:2;"/>
            <path d="M296.053,124.473L308.437,66.153L316.285,66.153L328.741,124.473L321.037,124.473L318.373,109.785L306.493,109.785L303.685,124.473L296.053,124.473ZM307.573,103.953L317.293,103.953L312.397,77.673L307.573,103.953Z" style="fill:white;fill-rule:nonzero;stroke:white;stroke-width:0.72px;stroke-linecap:butt;stroke-miterlimit:2;"/>
            <path d="M342.421,124.473L342.421,70.401L331.405,70.401L331.405,66.153L358.621,66.153L358.621,70.401L347.893,70.401L347.893,124.473L342.421,124.473Z" style="fill:white;fill-rule:nonzero;stroke:white;stroke-width:0.72px;stroke-linecap:butt;stroke-miterlimit:2;"/>
            <path d="M378.853,125.193C374.965,125.193 371.929,124.437 369.745,122.925C367.561,121.413 366.025,119.301 365.137,116.589C364.249,113.877 363.805,110.769 363.805,107.265L363.805,83.073C363.805,79.521 364.273,76.437 365.209,73.821C366.145,71.205 367.705,69.177 369.889,67.737C372.073,66.297 375.061,65.577 378.853,65.577C382.597,65.577 385.561,66.297 387.745,67.737C389.929,69.177 391.477,71.205 392.389,73.821C393.301,76.437 393.757,79.521 393.757,83.073L393.757,107.337C393.757,110.841 393.313,113.925 392.425,116.589C391.537,119.253 390.013,121.353 387.853,122.889C385.693,124.425 382.693,125.193 378.853,125.193ZM378.853,120.801C381.397,120.801 383.341,120.285 384.685,119.253C386.029,118.221 386.953,116.781 387.457,114.933C387.961,113.085 388.213,110.937 388.213,108.489L388.213,82.065C388.213,79.617 387.961,77.481 387.457,75.657C386.953,73.833 386.029,72.429 384.685,71.445C383.341,70.461 381.397,69.969 378.853,69.969C376.261,69.969 374.281,70.461 372.913,71.445C371.545,72.429 370.609,73.833 370.105,75.657C369.601,77.481 369.349,79.617 369.349,82.065L369.349,108.489C369.349,110.937 369.601,113.085 370.105,114.933C370.609,116.781 371.545,118.221 372.913,119.253C374.281,120.285 376.261,120.801 378.853,120.801Z" style="fill:white;fill-rule:nonzero;stroke:white;stroke-width:0.72px;stroke-linecap:butt;stroke-miterlimit:2;"/>
            <path d="M402.829,124.473L402.829,66.153L415.501,66.153C419.581,66.153 422.761,66.861 425.041,68.277C427.321,69.693 428.941,71.697 429.901,74.289C430.861,76.881 431.341,79.881 431.341,83.289L431.341,106.473C431.341,110.073 430.861,113.229 429.901,115.941C428.941,118.653 427.357,120.753 425.149,122.241C422.941,123.729 419.893,124.473 416.005,124.473L402.829,124.473ZM408.301,120.369L415.645,120.369C418.717,120.369 420.973,119.733 422.413,118.461C423.853,117.189 424.765,115.437 425.149,113.205C425.533,110.973 425.725,108.441 425.725,105.609L425.725,83.865C425.725,80.937 425.473,78.477 424.969,76.485C424.465,74.493 423.481,72.981 422.017,71.949C420.553,70.917 418.357,70.401 415.429,70.401L408.301,70.401L408.301,120.369Z" style="fill:white;fill-rule:nonzero;stroke:white;stroke-width:0.72px;stroke-linecap:butt;stroke-miterlimit:2;"/>
            <path d="M454.165,125.193C450.277,125.193 447.241,124.437 445.057,122.925C442.873,121.413 441.337,119.301 440.449,116.589C439.561,113.877 439.117,110.769 439.117,107.265L439.117,83.073C439.117,79.521 439.585,76.437 440.521,73.821C441.457,71.205 443.017,69.177 445.201,67.737C447.385,66.297 450.373,65.577 454.165,65.577C457.909,65.577 460.873,66.297 463.057,67.737C465.241,69.177 466.789,71.205 467.701,73.821C468.613,76.437 469.069,79.521 469.069,83.073L469.069,107.337C469.069,110.841 468.625,113.925 467.737,116.589C466.849,119.253 465.325,121.353 463.165,122.889C461.005,124.425 458.005,125.193 454.165,125.193ZM454.165,120.801C456.709,120.801 458.653,120.285 459.997,119.253C461.341,118.221 462.265,116.781 462.769,114.933C463.273,113.085 463.525,110.937 463.525,108.489L463.525,82.065C463.525,79.617 463.273,77.481 462.769,75.657C462.265,73.833 461.341,72.429 459.997,71.445C458.653,70.461 456.709,69.969 454.165,69.969C451.573,69.969 449.593,70.461 448.225,71.445C446.857,72.429 445.921,73.833 445.417,75.657C444.913,77.481 444.661,79.617 444.661,82.065L444.661,108.489C444.661,110.937 444.913,113.085 445.417,114.933C445.921,116.781 446.857,118.221 448.225,119.253C449.593,120.285 451.573,120.801 454.165,120.801Z" style="fill:white;fill-rule:nonzero;stroke:white;stroke-width:0.72px;stroke-linecap:butt;stroke-miterlimit:2;"/>
        </g>
    </g>
</svg>
