<?xml version="1.0" encoding="UTF-8" standalone="no"?>
<!DOCTYPE svg PUBLIC "-//W3C//DTD SVG 1.1//EN" "http://www.w3.org/Graphics/SVG/1.1/DTD/svg11.dtd">
<svg width="100%" height="100%" viewBox="0 0 512 256" version="1.1" xmlns="http://www.w3.org/2000/svg" xmlns:xlink="http://www.w3.org/1999/xlink" xml:space="preserve" xmlns:serif="http://www.serif.com/" style="fill-rule:evenodd;clip-rule:evenodd;stroke-linecap:round;stroke-linejoin:round;stroke-miterlimit:1.5;">
    <g transform="matrix(1,0,0,1,-4,7.25)">
        <g>
            <g transform="matrix(0.870937,0,0,0.870937,2.08487,33.7171)">
                <g transform="matrix(0.957413,0,0,0.957413,-14.1336,3.25695)">
                    <circle cx="110" cy="150" r="70" style="fill:none;stroke:rgb(55,65,81);stroke-width:5px;"/>
                </g>
                <g transform="matrix(0.947791,-0.947791,0.947791,0.947791,-120.504,104.751)">
                    <g transform="matrix(0.0882157,0.0882157,-0.0882157,0.0882157,168.294,80.3598)">
                        <path d="M315.947,301.227L376.32,240.853L430.293,230.187C498.987,136.747 630.4,90.027 677.973,90.027C677.973,137.6 631.253,269.013 537.813,337.707L527.147,391.68L466.773,452.053L451.627,376.747C421.547,376.747 421.547,376.747 406.4,361.6C391.253,346.453 391.253,346.453 391.253,316.373L315.947,301.227M533.333,202.667C515.779,202.667 501.333,217.112 501.333,234.667C501.333,252.221 515.779,266.667 533.333,266.667C550.888,266.667 565.333,252.221 565.333,234.667C565.333,217.112 550.888,202.667 533.333,202.667Z" style="fill:rgb(55,65,81);fill-rule:nonzero;"/>
                    </g>
                    <path d="M66.383,112.809L66.383,153L158.925,158.133C162.502,158.133 169.96,150.643 170.003,148.109C170.048,145.441 162.502,137.031 158.925,137.031L80,140L80,112.809C80,109.051 76.949,106 73.191,106C69.434,106 66.383,109.051 66.383,112.809Z" style="fill:rgb(55,65,81);"/>
                </g>
            </g>
            <g>
                <g transform="matrix(1.23357,0,0,1.18034,-41.5182,31.9174)">
                    <ellipse cx="143.605" cy="20.403" rx="4.864" ry="5.083" style="fill:rgb(55,65,81);stroke:rgb(55,65,81);stroke-width:3.45px;"/>
                </g>
                <g transform="matrix(0.822381,0,0,0.786893,-44.0976,55.4449)">
                    <ellipse cx="143.605" cy="20.403" rx="4.864" ry="5.083" style="fill:rgb(55,65,81);stroke:rgb(55,65,81);stroke-width:5.18px;"/>
                </g>
                <g transform="matrix(0.41119,0,0,0.393446,44.9512,19.4725)">
                    <ellipse cx="143.605" cy="20.403" rx="4.864" ry="5.083" style="fill:rgb(55,65,81);stroke:rgb(55,65,81);stroke-width:10.35px;"/>
                </g>
            </g>
        </g>
        <g transform="matrix(1.3862,0,0,1.3862,-159.881,31.7472)">
            <g transform="matrix(72,0,0,72,261.637,124.473)">
                <path d="M0.187,-0L0.187,-0.286L0.012,-0.81L0.117,-0.81L0.241,-0.419L0.363,-0.81L0.469,-0.81L0.295,-0.286L0.295,-0L0.187,-0Z" style="fill:rgb(55,65,81);fill-rule:nonzero;"/>
            </g>
            <g transform="matrix(72,0,0,72,294.685,124.473)">
                <path d="M0.019,-0L0.191,-0.81L0.3,-0.81L0.473,-0L0.366,-0L0.329,-0.204L0.164,-0.204L0.125,-0L0.019,-0ZM0.179,-0.285L0.314,-0.285L0.246,-0.65L0.179,-0.285Z" style="fill:rgb(55,65,81);fill-rule:nonzero;"/>
            </g>
            <g transform="matrix(72,0,0,72,330.109,124.473)">
                <path d="M0.171,-0L0.171,-0.751L0.018,-0.751L0.018,-0.81L0.396,-0.81L0.396,-0.751L0.247,-0.751L0.247,-0L0.171,-0Z" style="fill:rgb(55,65,81);fill-rule:nonzero;"/>
            </g>
            <g transform="matrix(72,0,0,72,359.917,124.473)">
                <path d="M0.263,0.01C0.209,0.01 0.167,-0.001 0.137,-0.022C0.106,-0.043 0.085,-0.072 0.073,-0.11C0.06,-0.147 0.054,-0.19 0.054,-0.239L0.054,-0.575C0.054,-0.624 0.061,-0.667 0.074,-0.704C0.087,-0.74 0.108,-0.768 0.139,-0.788C0.169,-0.808 0.21,-0.818 0.263,-0.818C0.315,-0.818 0.356,-0.808 0.387,-0.788C0.417,-0.768 0.438,-0.74 0.451,-0.704C0.464,-0.667 0.47,-0.624 0.47,-0.575L0.47,-0.238C0.47,-0.189 0.464,-0.147 0.452,-0.11C0.439,-0.073 0.418,-0.043 0.388,-0.022C0.358,-0.001 0.316,0.01 0.263,0.01ZM0.263,-0.051C0.298,-0.051 0.325,-0.058 0.344,-0.073C0.363,-0.087 0.376,-0.107 0.383,-0.133C0.39,-0.158 0.393,-0.188 0.393,-0.222L0.393,-0.589C0.393,-0.623 0.39,-0.653 0.383,-0.678C0.376,-0.703 0.363,-0.723 0.344,-0.737C0.325,-0.75 0.298,-0.757 0.263,-0.757C0.227,-0.757 0.2,-0.75 0.181,-0.737C0.162,-0.723 0.149,-0.703 0.142,-0.678C0.135,-0.653 0.131,-0.623 0.131,-0.589L0.131,-0.222C0.131,-0.188 0.135,-0.158 0.142,-0.133C0.149,-0.107 0.162,-0.087 0.181,-0.073C0.2,-0.058 0.227,-0.051 0.263,-0.051Z" style="fill:rgb(55,65,81);fill-rule:nonzero;"/>
            </g>
            <g transform="matrix(72,0,0,72,397.717,124.473)">
                <path d="M0.071,-0L0.071,-0.81L0.247,-0.81C0.304,-0.81 0.348,-0.8 0.38,-0.781C0.411,-0.761 0.434,-0.733 0.447,-0.697C0.46,-0.661 0.467,-0.619 0.467,-0.572L0.467,-0.25C0.467,-0.2 0.46,-0.156 0.447,-0.119C0.434,-0.081 0.412,-0.052 0.381,-0.031C0.35,-0.01 0.308,-0 0.254,-0L0.071,-0ZM0.147,-0.057L0.249,-0.057C0.292,-0.057 0.323,-0.066 0.343,-0.084C0.363,-0.101 0.376,-0.126 0.381,-0.157C0.386,-0.188 0.389,-0.223 0.389,-0.262L0.389,-0.564C0.389,-0.605 0.386,-0.639 0.379,-0.667C0.372,-0.694 0.358,-0.715 0.338,-0.73C0.317,-0.744 0.287,-0.751 0.246,-0.751L0.147,-0.751L0.147,-0.057Z" style="fill:rgb(55,65,81);fill-rule:nonzero;"/>
            </g>
            <g transform="matrix(72,0,0,72,435.229,124.473)">
                <path d="M0.263,0.01C0.209,0.01 0.167,-0.001 0.137,-0.022C0.106,-0.043 0.085,-0.072 0.073,-0.11C0.06,-0.147 0.054,-0.19 0.054,-0.239L0.054,-0.575C0.054,-0.624 0.061,-0.667 0.074,-0.704C0.087,-0.74 0.108,-0.768 0.139,-0.788C0.169,-0.808 0.21,-0.818 0.263,-0.818C0.315,-0.818 0.356,-0.808 0.387,-0.788C0.417,-0.768 0.438,-0.74 0.451,-0.704C0.464,-0.667 0.47,-0.624 0.47,-0.575L0.47,-0.238C0.47,-0.189 0.464,-0.147 0.452,-0.11C0.439,-0.073 0.418,-0.043 0.388,-0.022C0.358,-0.001 0.316,0.01 0.263,0.01ZM0.263,-0.051C0.298,-0.051 0.325,-0.058 0.344,-0.073C0.363,-0.087 0.376,-0.107 0.383,-0.133C0.39,-0.158 0.393,-0.188 0.393,-0.222L0.393,-0.589C0.393,-0.623 0.39,-0.653 0.383,-0.678C0.376,-0.703 0.363,-0.723 0.344,-0.737C0.325,-0.75 0.298,-0.757 0.263,-0.757C0.227,-0.757 0.2,-0.75 0.181,-0.737C0.162,-0.723 0.149,-0.703 0.142,-0.678C0.135,-0.653 0.131,-0.623 0.131,-0.589L0.131,-0.222C0.131,-0.188 0.135,-0.158 0.142,-0.133C0.149,-0.107 0.162,-0.087 0.181,-0.073C0.2,-0.058 0.227,-0.051 0.263,-0.051Z" style="fill:rgb(55,65,81);fill-rule:nonzero;"/>
            </g>
        </g>
    </g>
</svg>
